$MeshFormat
4.1 0 8
$EndMeshFormat
$PhysicalNames
6
1 1 "Bottom"
1 2 "Outlet"
1 3 "Top"
1 4 "Inlet"
1 5 "Cylinder"
2 10 "Domain"
$EndPhysicalNames
$Entities
9 8 1 0
1 -5 -5 0 0 
2 10 -5 0 0 
3 10 5 0 0 
4 -5 5 0 0 
5 0.5 0 0 0 
6 0 0.5 0 0 
7 -0.5 0 0 0 
8 0 -0.5 0 0 
9 0 0 0 0 
1 -5 -5 0 10 -5 0 1 1 2 1 -2 
2 10 -5 0 10 5 0 1 2 2 2 -3 
3 -5 5 0 10 5 0 1 3 2 3 -4 
4 -5 -5 0 -5 5 0 1 4 2 4 -1 
5 2.775557561562891e-17 0 0 0.5 0.5 0 1 5 2 5 -6 
6 -0.5 2.775557561562891e-17 0 0 0.5 0 1 5 2 6 -7 
7 -0.5 -0.5 0 -2.775557561562891e-17 0 0 1 5 2 7 -8 
8 0 -0.5 0 0.5 -2.775557561562891e-17 0 1 5 2 8 -5 
1 -5 -5 0 10 5 0 1 10 8 1 2 3 4 -8 -7 -6 -5 
$EndEntities
$Nodes
17 1426 1 1426
0 1 0 1
1
-5 -5 0
0 2 0 1
2
10 -5 0
0 3 0 1
3
10 5 0
0 4 0 1
4
-5 5 0
0 5 0 1
5
0.5 0 0
0 6 0 1
6
0 0.5 0
0 7 0 1
7
-0.5 0 0
0 8 0 1
8
0 -0.5 0
1 1 0 29
9
10
11
12
13
14
15
16
17
18
19
20
21
22
23
24
25
26
27
28
29
30
31
32
33
34
35
36
37
-4.499999999999105 -5 0
-3.999999999998209 -5 0
-3.499999999997313 -5 0
-2.999999999996788 -5 0
-2.499999999997373 -5 0
-1.999999999997957 -5 0
-1.499999999998541 -5 0
-0.9999999999991491 -5 0
-0.5000000000010631 -5 0
-3.129940751023241e-12 -5 0
0.4999999999948042 -5 0
0.9999999999927383 -5 0
1.499999999990671 -5 0
1.999999999988606 -5 0
2.499999999986714 -5 0
2.999999999987437 -5 0
3.499999999988335 -5 0
3.999999999989232 -5 0
4.499999999990129 -5 0
4.999999999991026 -5 0
5.499999999991925 -5 0
5.99999999999282 -5 0
6.499999999993717 -5 0
6.999999999994614 -5 0
7.499999999995513 -5 0
7.99999999999641 -5 0
8.499999999997309 -5 0
8.999999999998206 -5 0
9.499999999999103 -5 0
1 2 0 19
38
39
40
41
42
43
44
45
46
47
48
49
50
51
52
53
54
55
56
10 -4.499999999999385 0
10 -3.999999999998771 0
10 -3.499999999999266 0
10 -3.000000000000872 0
10 -2.500000000002477 0
10 -2.000000000004083 0
10 -1.500000000005687 0
10 -1.000000000007258 0
10 -0.5000000000067821 0
10 -6.16751094639767e-12 0
10 0.4999999999944471 0
10 0.99999999999506 0
10 1.499999999995676 0
10 1.99999999999629 0
10 2.499999999996905 0
10 2.999999999997519 0
10 3.499999999998138 0
10 3.999999999998758 0
10 4.49999999999938 0
1 3 0 29
57
58
59
60
61
62
63
64
65
66
67
68
69
70
71
72
73
74
75
76
77
78
79
80
81
82
83
84
85
9.499999999999318 5 0
8.999999999998636 5 0
8.499999999997955 5 0
7.999999999997273 5 0
7.499999999996591 5 0
6.999999999995911 5 0
6.499999999995229 5 0
5.999999999994594 5 0
5.499999999996573 5 0
4.999999999998852 5 0
4.500000000001132 5 0
4.000000000003412 5 0
3.500000000005692 5 0
3.000000000007972 5 0
2.500000000010078 5 0
2.000000000009569 5 0
1.500000000008885 5 0
1.000000000008201 5 0
0.5000000000075193 5 0
6.835421118012164e-12 5 0
-0.4999999999938467 5 0
-0.9999999999945324 5 0
-1.499999999995216 5 0
-1.999999999995897 5 0
-2.499999999996582 5 0
-2.999999999997266 5 0
-3.49999999999795 5 0
-3.999999999998632 5 0
-4.499999999999316 5 0
1 4 0 19
86
87
88
89
90
91
92
93
94
95
96
97
98
99
100
101
102
103
104
-5 4.499999999999385 0
-5 3.999999999998771 0
-5 3.499999999999266 0
-5 3.000000000000872 0
-5 2.500000000002477 0
-5 2.000000000004083 0
-5 1.500000000005687 0
-5 1.000000000007258 0
-5 0.5000000000067821 0
-5 6.16751094639767e-12 0
-5 -0.4999999999944471 0
-5 -0.99999999999506 0
-5 -1.499999999995676 0
-5 -1.99999999999629 0
-5 -2.499999999996905 0
-5 -2.999999999997519 0
-5 -3.499999999998138 0
-5 -3.999999999998758 0
-5 -4.49999999999938 0
1 5 0 7
105
106
107
108
109
110
111
0.4903926401520308 0.09754516125734172 0
0.4619397660413571 0.1913417166998779 0
0.4157348056849914 0.2777851172076403 0
0.3535533897883815 0.3535533913981661 0
0.2777851158147919 0.4157348066156629 0
0.1913417156147864 0.4619397664908166 0
0.09754516070669164 0.4903926402615619 0
1 6 0 7
112
113
114
115
116
117
118
-0.09754516125734172 0.4903926401520308 0
-0.1913417166998779 0.4619397660413571 0
-0.2777851172076403 0.4157348056849914 0
-0.3535533913981661 0.3535533897883815 0
-0.4157348066156629 0.2777851158147919 0
-0.4619397664908166 0.1913417156147864 0
-0.4903926402615619 0.09754516070669164 0
1 7 0 7
119
120
121
122
123
124
125
-0.4903926401520308 -0.09754516125734172 0
-0.4619397660413571 -0.1913417166998779 0
-0.4157348056849914 -0.2777851172076403 0
-0.3535533897883815 -0.3535533913981661 0
-0.2777851158147919 -0.4157348066156629 0
-0.1913417156147864 -0.4619397664908166 0
-0.09754516070669164 -0.4903926402615619 0
1 8 0 7
126
127
128
129
130
131
132
0.09754516125734172 -0.4903926401520308 0
0.1913417166998779 -0.4619397660413571 0
0.2777851172076403 -0.4157348056849914 0
0.3535533913981661 -0.3535533897883815 0
0.4157348066156629 -0.2777851158147919 0
0.4619397664908166 -0.1913417156147864 0
0.4903926402615619 -0.09754516070669164 0
2 1 0 1294
133
134
135
136
137
138
139
140
141
142
143
144
145
146
147
148
149
150
151
152
153
154
155
156
157
158
159
160
161
162
163
164
165
166
167
168
169
170
171
172
173
174
175
176
177
178
179
180
181
182
183
184
185
186
187
188
189
190
191
192
193
194
195
196
197
198
199
200
201
202
203
204
205
206
207
208
209
210
211
212
213
214
215
216
217
218
219
220
221
222
223
224
225
226
227
228
229
230
231
232
233
234
235
236
237
238
239
240
241
242
243
244
245
246
247
248
249
250
251
252
253
254
255
256
257
258
259
260
261
262
263
264
265
266
267
268
269
270
271
272
273
274
275
276
277
278
279
280
281
282
283
284
285
286
287
288
289
290
291
292
293
294
295
296
297
298
299
300
301
302
303
304
305
306
307
308
309
310
311
312
313
314
315
316
317
318
319
320
321
322
323
324
325
326
327
328
329
330
331
332
333
334
335
336
337
338
339
340
341
342
343
344
345
346
347
348
349
350
351
352
353
354
355
356
357
358
359
360
361
362
363
364
365
366
367
368
369
370
371
372
373
374
375
376
377
378
379
380
381
382
383
384
385
386
387
388
389
390
391
392
393
394
395
396
397
398
399
400
401
402
403
404
405
406
407
408
409
410
411
412
413
414
415
416
417
418
419
420
421
422
423
424
425
426
427
428
429
430
431
432
433
434
435
436
437
438
439
440
441
442
443
444
445
446
447
448
449
450
451
452
453
454
455
456
457
458
459
460
461
462
463
464
465
466
467
468
469
470
471
472
473
474
475
476
477
478
479
480
481
482
483
484
485
486
487
488
489
490
491
492
493
494
495
496
497
498
499
500
501
502
503
504
505
506
507
508
509
510
511
512
513
514
515
516
517
518
519
520
521
522
523
524
525
526
527
528
529
530
531
532
533
534
535
536
537
538
539
540
541
542
543
544
545
546
547
548
549
550
551
552
553
554
555
556
557
558
559
560
561
562
563
564
565
566
567
568
569
570
571
572
573
574
575
576
577
578
579
580
581
582
583
584
585
586
587
588
589
590
591
592
593
594
595
596
597
598
599
600
601
602
603
604
605
606
607
608
609
610
611
612
613
614
615
616
617
618
619
620
621
622
623
624
625
626
627
628
629
630
631
632
633
634
635
636
637
638
639
640
641
642
643
644
645
646
647
648
649
650
651
652
653
654
655
656
657
658
659
660
661
662
663
664
665
666
667
668
669
670
671
672
673
674
675
676
677
678
679
680
681
682
683
684
685
686
687
688
689
690
691
692
693
694
695
696
697
698
699
700
701
702
703
704
705
706
707
708
709
710
711
712
713
714
715
716
717
718
719
720
721
722
723
724
725
726
727
728
729
730
731
732
733
734
735
736
737
738
739
740
741
742
743
744
745
746
747
748
749
750
751
752
753
754
755
756
757
758
759
760
761
762
763
764
765
766
767
768
769
770
771
772
773
774
775
776
777
778
779
780
781
782
783
784
785
786
787
788
789
790
791
792
793
794
795
796
797
798
799
800
801
802
803
804
805
806
807
808
809
810
811
812
813
814
815
816
817
818
819
820
821
822
823
824
825
826
827
828
829
830
831
832
833
834
835
836
837
838
839
840
841
842
843
844
845
846
847
848
849
850
851
852
853
854
855
856
857
858
859
860
861
862
863
864
865
866
867
868
869
870
871
872
873
874
875
876
877
878
879
880
881
882
883
884
885
886
887
888
889
890
891
892
893
894
895
896
897
898
899
900
901
902
903
904
905
906
907
908
909
910
911
912
913
914
915
916
917
918
919
920
921
922
923
924
925
926
927
928
929
930
931
932
933
934
935
936
937
938
939
940
941
942
943
944
945
946
947
948
949
950
951
952
953
954
955
956
957
958
959
960
961
962
963
964
965
966
967
968
969
970
971
972
973
974
975
976
977
978
979
980
981
982
983
984
985
986
987
988
989
990
991
992
993
994
995
996
997
998
999
1000
1001
1002
1003
1004
1005
1006
1007
1008
1009
1010
1011
1012
1013
1014
1015
1016
1017
1018
1019
1020
1021
1022
1023
1024
1025
1026
1027
1028
1029
1030
1031
1032
1033
1034
1035
1036
1037
1038
1039
1040
1041
1042
1043
1044
1045
1046
1047
1048
1049
1050
1051
1052
1053
1054
1055
1056
1057
1058
1059
1060
1061
1062
1063
1064
1065
1066
1067
1068
1069
1070
1071
1072
1073
1074
1075
1076
1077
1078
1079
1080
1081
1082
1083
1084
1085
1086
1087
1088
1089
1090
1091
1092
1093
1094
1095
1096
1097
1098
1099
1100
1101
1102
1103
1104
1105
1106
1107
1108
1109
1110
1111
1112
1113
1114
1115
1116
1117
1118
1119
1120
1121
1122
1123
1124
1125
1126
1127
1128
1129
1130
1131
1132
1133
1134
1135
1136
1137
1138
1139
1140
1141
1142
1143
1144
1145
1146
1147
1148
1149
1150
1151
1152
1153
1154
1155
1156
1157
1158
1159
1160
1161
1162
1163
1164
1165
1166
1167
1168
1169
1170
1171
1172
1173
1174
1175
1176
1177
1178
1179
1180
1181
1182
1183
1184
1185
1186
1187
1188
1189
1190
1191
1192
1193
1194
1195
1196
1197
1198
1199
1200
1201
1202
1203
1204
1205
1206
1207
1208
1209
1210
1211
1212
1213
1214
1215
1216
1217
1218
1219
1220
1221
1222
1223
1224
1225
1226
1227
1228
1229
1230
1231
1232
1233
1234
1235
1236
1237
1238
1239
1240
1241
1242
1243
1244
1245
1246
1247
1248
1249
1250
1251
1252
1253
1254
1255
1256
1257
1258
1259
1260
1261
1262
1263
1264
1265
1266
1267
1268
1269
1270
1271
1272
1273
1274
1275
1276
1277
1278
1279
1280
1281
1282
1283
1284
1285
1286
1287
1288
1289
1290
1291
1292
1293
1294
1295
1296
1297
1298
1299
1300
1301
1302
1303
1304
1305
1306
1307
1308
1309
1310
1311
1312
1313
1314
1315
1316
1317
1318
1319
1320
1321
1322
1323
1324
1325
1326
1327
1328
1329
1330
1331
1332
1333
1334
1335
1336
1337
1338
1339
1340
1341
1342
1343
1344
1345
1346
1347
1348
1349
1350
1351
1352
1353
1354
1355
1356
1357
1358
1359
1360
1361
1362
1363
1364
1365
1366
1367
1368
1369
1370
1371
1372
1373
1374
1375
1376
1377
1378
1379
1380
1381
1382
1383
1384
1385
1386
1387
1388
1389
1390
1391
1392
1393
1394
1395
1396
1397
1398
1399
1400
1401
1402
1403
1404
1405
1406
1407
1408
1409
1410
1411
1412
1413
1414
1415
1416
1417
1418
1419
1420
1421
1422
1423
1424
1425
1426
0.5691632684780965 -0.08038107317226584 0
0.516818047465362 0.2784126493591748 0
9.594021735573747 0.4490007319439393 0
0.4503838148763262 -0.365179637407162 0
4.809090228693764 4.434616351632113 0
4.581830387729823 -4.576264470206888 0
-0.4652099236737981 -0.34948782010448 0
-0.3873676240784071 0.4301411816484582 0
0.2544544915351283 0.530681456325539 0
-0.2062397965329898 -0.558318544104456 0
-0.5905905958653608 0.1805592321705721 0
0.1989407953847253 -0.5494244080035843 0
-0.08686883144920114 0.578392957086122 0
2.902696034879842 4.594926930187726 0
2.912934264297389 -4.600532697757033 0
-4.575296813639656 2.096594489757921 0
-2.073647530036947 -4.594597798353321 0
-4.546974724363211 -1.604037176363459 0
-1.701473377386777 4.61732884242535 0
6.6254264912063 -4.581057573981765 0
6.716238130098298 4.568145207618455 0
1.186746675671509 -4.658581639693637 0
1.42247915282575 4.599117623801495 0
-0.9147271897339871 -4.612107984070192 0
-4.457693968627932 0.727931111278072 0
-0.3771803565525736 4.541851529163551 0
-0.5637635372013553 -0.1515272715643938 0
9.511335281235915 -1.653832515711561 0
9.550472613373797 1.851710495784936 0
8.320899015738714 -4.620872904071986 0
8.1705717867206 4.586075211212259 0
-4.459209474942641 -3.398325952398452 0
-3.044609279426156 4.526433767450305 0
9.375372716415431 3.352896564896946 0
9.558563226101738 -3.083194809978792 0
-4.576277132101344 -0.1088340814572752 0
0.09218047540295762 -4.608006707600445 0
-3.124638531167737 -4.568189962765471 0
-4.57360273540194 3.017650013227982 0
3.694741767247901 -4.620972177580537 0
5.741665306837358 4.561701684925847 0
3.870469433711705 4.622507567534427 0
5.631954298879871 -4.556581465444427 0
9.547092167126728 -0.5126957053694868 0
9.119995422440214 -4.562629078478762 0
-4.042481754541821 4.527666783924044 0
-4.111786212431498 -4.574470052200693 0
9.09905006502729 4.594474158017637 0
0.4692618496658318 0.396454346702863 0
0.605880360882433 0.3796160219164448 0
0.5530907335111449 0.179008801437403 0
0.5728377695691017 0.08041225678861977 0
0.6588155868031531 0.1646479000874041 0
-0.3844333393663732 -0.4352216752061926 0
-0.4304326904162328 -0.5159357838238897 0
-0.4665842414807213 0.3497650740709984 0
-0.2972049271406842 0.4958950936130691 0
-0.1973024008833098 0.5452492845862381 0
-0.3290351280698383 0.5876875527000462 0
0.1445171268635463 0.5692095490935553 0
0.1939310228412957 0.6667420954674658 0
0.356258353121483 0.4775596860409516 0
0.5114870461800894 0.4817787605879037 0
0.6030931717960386 0.4784464406275564 0
0.6045577687137195 0.5855179279556535 0
0.6091696131015515 0.7030053198226124 0
0.7074575979622791 0.6974866603809116 0
0.6346101943221384 0.8288726401809232 0
0.7566857479530541 0.7825597897197252 0
0.6708560597124352 0.9923687033792972 0
0.8287797605428577 0.906895480255921 0
0.9513112509314686 0.816704951776544 0
1.048588881998089 0.9174121885866129 0
1.115408375222772 0.8240398550805806 0
1.167890605276851 0.994975274999838 0
1.224096763338212 0.8285651638738057 0
1.439131439194152 0.8399557118457784 0
1.644248132599028 0.9985496722177366 0
1.735657670133052 0.8489065358329653 0
1.908356407325641 1.132601504881663 0
1.915457495140547 0.8419785458058053 0
2.172759211510361 0.7951724602576181 0
2.069400475377433 0.5320364574588448 0
2.29980816638219 0.4252041125762602 0
2.528773159619701 0.2994439334558673 0
2.6840974188633 0.5585622369747223 0
2.915625485546996 0.41518181274972 0
3.017531311878749 0.6120824737134372 0
3.218591727640126 0.2721270572656877 0
0.768591085322621 1.097237469585274 0
3.246791080826013 0.6213511022193297 0
3.582262175298506 0.2930071694409868 0
2.390590614269554 0.03979129408138821 0
3.586776933056524 0.6075609480575161 0
3.836770580404711 0.2592942528768797 0
4.017760580476532 0.5120167792283054 0
4.296186843770849 0.1303636539681035 0
4.448723807712781 0.6302603649194112 0
4.659375383467556 0.2755448560825391 0
4.782350320366729 0.7766656249688952 0
3.549562111793926 0.002669445343841604 0
5.112198360509915 0.4205102678531329 0
5.283304102253619 0.6971111580571896 0
1.495532831651669 1.215755513432403 0
4.872074902603317 -0.08855658277838792 0
5.27427512745014 -0.02791395339187149 0
5.063625108049062 -0.4496762430105471 0
5.453238776465673 -0.4011603804666822 0
3.575820271857443 0.9464686069583982 0
5.241507542103411 -0.8062964138953307 0
5.626275932016055 -0.7653388243418051 0
5.858885458155767 -0.3859226423106984 0
4.596582954065932 1.002788297208043 0
0.5779926371529061 1.146887969656159 0
0.7146749168158403 1.21583205523319 0
0.4770320002695216 1.291788607240257 0
0.6301129176993597 1.375138486070909 0
0.5544109828068914 1.547674175653012 0
0.3245923049933109 1.468190426672272 0
0.2804579213137352 1.709119396939078 0
0.05144471992121067 1.690441988500903 0
0.2434569117108142 1.914963894153097 0
0.01217647076260214 1.892641997037912 0
0.4658108463648529 1.943557901380137 0
6.03226402553965 -0.7518190951428354 0
6.272867534589055 -0.3785831253775906 0
5.375426101871785 -1.152702092846967 0
5.040500524102218 -1.2346176700643 0
0.4450763445402733 2.1379236524259 0
0.5973916894334159 2.143454368284826 0
6.452759566994884 -0.7461520133411547 0
5.143368824898375 -1.471793409997103 0
4.725715428771233 -1.375798252976563 0
2.17162983417103 0.1577177593278612 0
2.303605575118964 -0.1541049420017721 0
2.066326027562037 -0.1591434539845026 0
2.202181989159595 -0.4902902660348201 0
1.829018490290508 -0.3555730469752355 0
1.976401454580103 -0.6167924005887938 0
2.336732849754461 -0.7667410735153795 0
2.108521215211807 -0.884678502532109 0
1.763701643573459 -0.7330224796030015 0
1.881284943640028 -0.9897885729430904 0
1.64153735450013 -1.065969391085109 0
1.731474673838131 -1.332106867109059 0
1.465943358688437 -1.370538167229538 0
1.995635371360574 -1.261796604163679 0
1.497723300791357 -1.608991077761149 0
1.301436916492005 -1.60074024295338 0
1.470811889293956 -1.858267912981068 0
1.153055727451912 -1.779613955623748 0
-0.1703207889085687 1.674420823871554 0
-0.223898944387006 1.869676845074153 0
-0.3841273844078112 1.643979532196353 0
-0.4607460879270233 1.836924229737567 0
-0.2735100450351693 2.074710315728925 0
-0.5338904669842047 2.041003228556913 0
-0.6987592890222651 1.783460294044832 0
-0.7962938678412484 1.996059993159559 0
-0.9688909919255135 1.680124967025495 0
-1.062257475794117 1.950491885738268 0
-1.272466389816506 1.688300280162647 0
-1.325481843675429 1.910873391805328 0
-1.461334991220574 1.679647479876456 0
-1.558760780824655 1.834267666443867 0
-1.774718380873047 1.695352343210427 0
-1.891987799371998 1.884694870142526 0
-2.052099614840997 1.482341503163847 0
-1.787543569869249 1.268552604603478 0
-2.177668976402615 1.130254282907212 0
-1.940933116952612 1.01144674963791 0
-2.058508274134486 0.7359222866125883 0
-2.294428969164118 0.8414299881262788 0
-2.157229334584363 0.4676758746889154 0
0.4714411989285217 2.338667808219226 0
0.6737507972814847 2.277876385095767 0
-1.391853393303942 2.143741207213544 0
6.688085080820842 -0.3564226220465465 0
1.43592884231751 -2.145548047277431 0
1.105593914706323 -2.102443350323282 0
1.743739820006149 -2.157157910741401 0
0.905889614670669 -1.813408186362489 0
0.764074628877172 -2.018561022071302 0
0.6035735769025929 -1.763673295870072 0
0.4740243313826152 -2.114936932442025 0
0.3347109825840511 -1.862574032760679 0
0.1933408783121824 -2.040739060502062 0
0.09662392824492881 -1.747637152680201 0
-0.02785361251623791 -1.998888405950555 0
-0.2204576157386551 -1.752505521078433 0
-0.4218924037333697 -1.883104325805116 0
-0.6926237412768171 -2.016499406203729 0
-0.7580167740962318 -1.703392684543145 0
-0.917047752352055 -1.954112505792764 0
-0.9828462769091179 -1.767475160102354 0
-1.19693960967801 -1.868686201404278 0
-1.317323374706585 -1.634870180964249 0
-1.426304219993598 -1.998933681327542 0
-1.548323234879188 -1.730879889373537 0
-1.819231696497315 -1.813865474896762 0
-1.915377317634477 -1.52807949933927 0
-2.105314955175496 -1.89277617562391 0
-0.2882334188705442 -2.136386792180711 0
-2.213474128705512 -1.595851995648684 0
-1.263682848378165 -2.240245538029299 0
-1.402902827137073 -1.462179335458108 0
-2.398035435869221 0.557670951989561 0
-2.180947488202379 1.901838252346318 0
0.536850116630575 -2.289768389292492 0
-1.826153761765475 0.6478215460448504 0
-1.924896910813885 0.3833560630716255 0
4.900267214439165 -1.726525641428771 0
4.545170731937498 -1.794416997151106 0
5.322953496767615 -1.821159336139052 0
0.5233037275323499 2.570238840474569 0
0.7878492930607385 2.486830249360223 0
6.880193254694261 -0.7292189735308192 0
0.8161850751568235 -1.654484326692798 0
-2.541419109429837 0.9655324476563616 0
-2.36910595419943 -1.997495670023282 0
-1.040727558588858 1.438982688437054 0
-2.237882763600789 -2.216357124218987 0
-2.514235669356132 -1.694140805059106 0
-1.657481288578851 0.2964486996957815 0
-1.786736452278513 0.04780982837019088 0
1.549335397906074 -0.8157751724062601 0
1.414855683284441 -2.51777598610151 0
1.77986023184111 -2.438241770915498 0
7.092271081634981 -0.2963752199995046 0
6.882841575668181 0.07975544774267122 0
1.198002715468651 0.6563699317134322 0
1.005836237839477 2.315120362616065 0
1.222133282083649 2.490561401099832 0
1.385981444479181 2.247974387917276 0
1.503749128329565 2.609645429764444 0
1.638105764797619 2.336059906656722 0
1.811229308803464 2.698529092163345 0
1.956630523935554 2.405658188070829 0
2.083104453462456 2.843174892711053 0
2.371895520852993 2.548419041203 0
5.155715045722533 -2.187879938830783 0
5.572811605182077 -2.223225896382671 0
-0.06507829317080571 -1.604649069028324 0
-1.549561310614832 0.141065295398028 0
-1.41466762604446 0.3464816990030275 0
7.297242419405571 -0.6778508431909933 0
7.023683538393744 -1.115015776976452 0
-2.616646848266748 -2.145212713999242 0
7.272560573612769 0.2020450232360342 0
7.055546922450237 0.5803814855805854 0
-0.5373923433550977 -1.633480074944753 0
2.800830514441947 2.484299945357619 0
2.893168977824053 2.796344808336044 0
-1.599954619345435 -0.006806454726994335 0
-1.820398190497632 -0.1193468571860347 0
3.048432459408601 2.46156336170995 0
3.185431062309381 2.668231272127891 0
0.5497775144291885 2.844027228211422 0
0.2151917681667706 2.842283893842456 0
-2.347989926766508 -2.4976751044193 0
7.684324183683049 0.3366030006620996 0
7.496644036959648 0.8432136904201988 0
3.429409312108762 2.442031555311501 0
3.69062665483678 2.660139100987652 0
0.2318457513424215 1.280147177192451 0
1.591209665887191 -2.747979532169635 0
1.828742356921262 -2.728663616602018 0
2.048293656489387 -2.342836457457874 0
2.201680951664564 -2.700692996257413 0
2.486926609184958 -2.391365023581042 0
2.748199367508358 -2.631686670624899 0
0.7957558195980673 1.44729609520558 0
3.856133282383845 2.423226195556833 0
4.00151890963527 2.79392311405867 0
4.11858654700417 2.452546358652341 0
4.369416156888269 2.88527479477496 0
4.497463188634391 2.515801845802716 0
4.743284181764546 3.014178436775888 0
4.988007640301527 2.625835154150785 0
5.222236168557901 2.904931597944992 0
5.474041863628838 2.531877482198586 0
-1.411087138143467 -0.03623649953017691 0
-1.432308657227024 -0.3036826936286 0
2.952155427892611 -2.323714952282725 0
3.038704925686653 -2.834838612849312 0
1.662478381861099 -0.1294548941073623 0
5.518943244465558 2.896196895376782 0
5.922322935693826 2.509013262504177 0
1.918553454641548 3.016814920198685 0
0.7184213416695757 0.4532441626687865 0
7.471242445806867 -1.083911349733168 0
7.068275887674711 -1.51688166705376 0
4.417555271117755 -1.550138295311447 0
0.5283034460100903 3.153183705921601 0
0.1723036803124034 3.13214441601969 0
5.379127214671141 -2.594404910814504 0
5.803863659892333 -2.62877325541552 0
5.93950304441393 2.898153271043154 0
6.404402503555491 2.495677396125374 0
6.401723435696303 2.899868336760688 0
6.923610051413347 2.479092785082381 0
6.889015032393417 2.901155906333345 0
7.465443376480875 2.475322664283549 0
6.346781243086546 2.095176738433465 0
4.954405177699805 -2.559645402305017 0
-2.717208089939012 -2.653307012362232 0
-2.261424500480399 -2.945024920319919 0
8.029352097998782 0.8375899443622794 0
7.878332976599632 -0.0717850909281028 0
2.103274656342203 -3.017326704258923 0
-1.188133590044737 -0.2285604883057275 0
-2.895464614025431 -2.290481205543878 0
2.871768493283263 0.7834547358703045 0
-1.260440269592898 -0.5219843472785287 0
2.461145461363057 -1.029569476065336 0
7.392013872002878 2.907296481820282 0
-2.028331678256439 2.249697482677393 0
-2.488232692689808 2.186480777420289 0
-2.279027007710665 2.444039553941315 0
-2.756003871765303 2.457432949739668 0
-2.515625873394059 2.705033213526674 0
-2.705001485889483 1.908668830221135 0
-2.059712890320637 2.643414895059855 0
-2.258646198612109 2.910741813474615 0
-1.966553360508977 3.069466708273822 0
-2.764844218276654 2.988393995692161 0
-2.986652849825227 2.166446474518338 0
-3.181525372148319 1.827988232495092 0
2.053884194437734 1.414322572287201 0
1.369540392257877 2.900187231500719 0
-1.215096726791078 -0.02908148172852705 0
-2.279553658955048 -1.270641860749111 0
-2.715775538445779 -1.335054090170442 0
2.581326615185905 -0.6623454984343156 0
2.705289828248087 -0.9350921998139911 0
8.002920079477567 2.503890576561202 0
-1.616535765889893 -0.5346484398981065 0
7.540889428076128 -1.526075889145174 0
7.451130014773768 -1.981700749190552 0
-1.099456216589284 -0.4061791981088254 0
-1.591577830164708 1.121971260349399 0
-0.8786767095134009 -2.263630516419013 0
2.317601697210738 1.326339376896422 0
5.173865659105079 -2.96388571094838 0
4.741516305506924 -2.923166336139524 0
2.57975209755564 2.915141241376496 0
-2.716809748669315 -0.9049007884530236 0
-3.117154333857519 -0.8791407310311395 0
-3.168697213675561 -1.207899821137379 0
6.692446348074546 0.4356500423443836 0
3.239035399080862 -2.502606440296583 0
7.898393401682045 -2.135108438119735 0
7.653461872131601 -2.578838247880468 0
3.099814429338446 -2.092036587713404 0
0.4701965999043544 1.06057530188326 0
3.403064799490243 3.099794135473037 0
-3.144111519099508 -0.5437129620067653 0
-3.040291198500151 -2.77748981056695 0
2.830499922102582 -3.161890087056309 0
3.359682779685139 -2.998340037382463 0
4.179664703299269 3.247517823368368 0
5.396586969728546 2.143677140582684 0
7.902419810815357 -0.9891448730131503 0
-0.9769714252828423 -0.5551513919456085 0
-1.106880136017788 -0.6804935723446991 0
-0.854478524971005 -0.6650694035655358 0
-0.9354373318252094 -0.8333588842093985 0
-0.7756817002937377 -0.8366903452387411 0
1.187287876010811 2.093784390838454 0
1.650939904239631 0.7046315696551885 0
7.25621790041394 -2.423605908655813 0
7.415892854613064 -2.997784171410265 0
8.007643629872945 -2.833851837828586 0
0.5042487648904448 3.478237425915318 0
0.1390611664221978 3.448214911341161 0
2.812363654227699 2.16445579690921 0
0.8867455053201504 3.505851625365517 0
-2.623064416277997 -2.995857497036371 0
-2.227588845173655 -3.318074001301954 0
-0.1656531255345454 3.10050494369621 0
-0.2157953432561173 3.413519388194483 0
7.901059204508578 2.927333674570915 0
-2.487138469559023 3.212069333918522 0
-3.104893437944091 3.286888796859237 0
4.158300777628471 2.096539515287176 0
4.71063806829789 -0.5646726008986994 0
6.621162425375029 -1.509146586773971 0
7.753311946067729 -3.246761336656422 0
7.183685509263951 -3.402453346808179 0
5.089093671726945 3.155929306161565 0
2.821941726298837 -0.5474265695210412 0
2.9746667183188 -0.8066867950920822 0
1.207014100746978 -2.82665280822733 0
1.49674175120429 -2.962775141574915 0
1.084709980115854 -3.033514027820639 0
8.514977216184345 2.562637917303208 0
1.281993442054835 -3.344084554946621 0
0.7984353431967917 -3.300747703695792 0
-1.245071130955881 -0.8281880370434572 0
-3.49495007044472 -0.5175329399552594 0
-3.212677523829808 -0.2024477291706876 0
-3.502070504335836 -0.8034153333017817 0
0.504508460227137 3.820554511556044 0
7.270996573218135 3.321175205368996 0
-0.5024677997847452 3.062985183197014 0
-0.564162519505478 3.377001684309328 0
-0.8386375553365456 3.022310478579905 0
8.081646783844088 2.072789166846262 0
3.430143474741107 -2.110935833264435 0
3.782308764910884 -2.345130029525997 0
-3.503038398504713 2.013423654983014 0
-3.645894121533513 1.633993908300315 0
-3.346723178862368 1.467837485617126 0
6.316896766739248 3.305240864018612 0
-0.9628200834781661 -0.3125919440397199 0
2.16109889680852 1.654570923868083 0
-2.274165902720382 -0.8533492192769698 0
8.330641797576074 -3.128895057454424 0
8.680033812154074 -2.730517539932695 0
-0.5203669068483995 -0.4321257254716919 0
4.980399610201115 -3.337667363830504 0
4.532534420814662 -3.288751365308056 0
5.440460614540124 -3.369619443832407 0
0.2265266732837115 2.339788885104432 0
7.510002111837432 -3.658093361984044 0
2.802984514679061 -1.274242337867955 0
3.113490733368476 -1.100587876426794 0
3.401842253216825 -0.9590551149976768 0
-2.860779034726678 -0.2118436228814042 0
-3.495131574295285 1.126120585467385 0
3.146554470190644 -3.349637109616857 0
3.518085185046322 -3.476109097700857 0
-3.571450065045696 -0.202995206152665 0
-3.270902817898979 0.1996940763776846 0
-0.9165227447009168 3.342340483338533 0
-0.9586682335706246 3.682005435265308 0
-1.391032868618058 3.706173657359066 0
-0.876016447773845 -1.030372874035974 0
-0.6768465452573715 -0.9538721883339332 0
1.22716559964124 -1.436013322596982 0
-0.6026730931569698 -0.7754431981364108 0
-0.4705329474275224 -0.9571258750818538 0
1.0784910294384 1.110299983117841 0
-1.880953454586044 -2.89826940881017 0
-1.829545081956788 -3.269764356754834 0
-1.765539237536463 -3.618175501046675 0
-1.385293583984842 -3.556445451010796 0
-1.446976357890877 -3.224452022705143 0
-1.112440226626521 -3.515708569711345 0
-1.023012462678689 -3.19103569916822 0
-0.6785200189035474 -3.41663832784645 0
-0.4774661071513855 -3.128207770562157 0
-0.3915813236507347 -3.587445379291452 0
-0.2040564102412326 -3.270492684484459 0
0.1050572239104319 -3.395648743265907 0
6.952418593690056 -3.791266916506789 0
5.716954902327183 -1.853538385677059 0
6.819822448188456 -3.230615040020639 0
6.594360494630619 -3.617464792740658 0
-0.1248257146189463 1.491221190424722 0
-0.3150683481154579 1.464177314388011 0
-0.2520232205839421 1.295569407549397 0
-0.4138399100700665 1.25318504743683 0
-0.3470244483133813 1.108145084982933 0
-0.4653609427613162 1.046968548587879 0
-0.2048408633863218 1.133569910077755 0
-0.3993695316742076 0.9616256561654053 0
-0.5598993191307037 0.9451085078620489 0
-0.6758411377776046 1.063814868242407 0
-0.7620670821304285 0.9155163263593886 0
-0.9081592247051328 0.9988168337755361 0
-0.962271170354732 0.8221149488421623 0
-0.8248753054937543 0.7599634233070189 0
-1.008792485629601 0.6597572511353639 0
-0.87319298624332 0.6121038295776128 0
-1.072366901300555 1.047572981160558 0
-0.4224024858622956 2.779521403864627 0
-0.5591304981022263 -0.5290837467737877 0
1.638329425953542 -0.4904130674004287 0
1.496001149525224 -0.2817640446520221 0
1.348918755972119 -0.4280187989099128 0
1.197922697382749 -0.303390509672798 0
1.305419366226901 -0.08350268858723653 0
1.032379762631266 -0.2270977570689016 0
0.9478215251953064 -0.4041064288483363 0
1.089566917811917 -0.4814168992135735 0
0.9820032494598913 -0.6521684037964147 0
0.8492254363023264 -0.5753500611695926 0
0.8694588344284845 -0.819463034887435 0
0.7369399595546335 -0.7323783523997353 0
0.7609812894089429 -0.9783759365845945 0
0.5893909562133536 -0.8969695886280452 0
0.5153146894021198 -0.7451124350119818 0
0.4363049128406777 -0.9222739138329051 0
0.5323233556674002 -1.118152461359533 0
0.3682281505316464 -1.025507816584519 0
0.8063812012145112 -0.3504213595340405 0
0.2382617431588773 -0.9172784928553025 0
0.1668107370839398 -1.050264612670852 0
0.05935780270355567 -0.8923952926172969 0
0.04213842887065051 -1.057964557805397 0
0.4143226367968493 -1.228864177514148 0
-0.1346047087446952 -0.9098692234895737 0
-3.665707511497928 0.1467359895266459 0
2.257051915147679 -2.140417219545391 0
1.035278959539001 -3.626697312564294 0
1.492929304682045 -3.772347160965566 0
-2.455466846093484 -0.4767356650172931 0
-1.038184770634157 0.5399036093700234 0
-0.9301229735596194 0.4480285607025115 0
-1.158564202336609 0.6996421447943253 0
-0.7659169366917635 0.4388210306629394 0
-0.8887816399650198 0.2840032341013224 0
3.520964282234099 -1.261763681788576 0
3.674289326659 -0.8133727365659933 0
7.667475933660746 1.338911581871668 0
7.038229791374321 1.105742385395222 0
8.089435379288096 1.242957458909159 0
8.344074044521864 0.8244351337574394 0
8.585843060059677 1.130309277861254 0
2.410399771909808 1.568036382755974 0
8.575371940008962 2.127434656083172 0
-1.16837303036605 2.968767372835304 0
8.402759334310698 2.976291334220095 0
8.250176708176062 3.372302824496115 0
0.8238497581798739 -3.005584191883826 0
-1.004560015510761 -1.065057144775317 0
0.6642418171964878 2.003910353263155 0
-0.3352119683176918 -2.930695064271964 0
4.539594850077843 -2.517873292461792 0
8.804796316114924 0.7101843617639831 0
0.8991673673734016 3.846070223138916 0
-2.733154283799094 3.549598131962949 0
-3.261385689997022 3.628818058451658 0
-3.51879880832899 3.249085161898581 0
-2.363767774203492 3.732442635467564 0
-3.574322186338753 3.613731457040349 0
-1.27920723184193 -3.888628059781167 0
-1.172309536788356 -2.811873644273896 0
3.406055826813532 -3.851289766079857 0
6.100043049796853 -0.02344906404813026 0
2.989250903075038 0.01433553489974723 0
5.310430657582999 -3.750397822221046 0
1.697730231825848 2.074927653616166 0
-0.4939488005041479 1.411897471700258 0
8.474893040867887 0.5581848603163359 0
-1.250668420206704 3.990423008478637 0
-0.247540429206627 3.753812440378026 0
0.4834061371909738 0.8582201857067964 0
5.768902114996291 -3.752691581894547 0
-0.001956683351619446 -0.7248975656920503 0
-0.4314203610556727 0.8390705022016856 0
0.05840232152084583 -1.223430839747691 0
-0.1032296563959694 -1.240751715219208 0
1.823408378965596 1.541865193773281 0
2.820769448060706 -3.824604335421532 0
3.722692349447929 -3.122592786955887 0
-0.8485509920195502 -1.220593562672099 0
-0.4638464801238628 -1.143546960416668 0
6.153694376544725 -1.123068865119535 0
-0.9945490705217229 0.2573680515338458 0
-0.8559198819625007 0.1188025057943848 0
0.5061653491217626 4.189281467177648 0
-3.798963943154094 1.280015456014168 0
-4.114212615798813 1.433598683380783 0
-0.1017394930382993 -2.954534499027232 0
-0.4590628685964854 -0.7931367477278011 0
4.113559304799143 -1.730891311667432 0
-2.007427022515881 -0.5792197245830115 0
-1.916414519395967 -0.9858392409555621 0
-0.07761525595541019 -3.737864231427539 0
2.241732640320065 1.833366021867711 0
-1.001918721741919 4.021937775887942 0
7.260445569552949 -4.032723992735728 0
-2.511880318779998 4.124092678759329 0
3.755581942736047 -3.849658816872302 0
-1.053858688998535 2.689774577184159 0
2.613059528391243 -0.07948262114889255 0
8.769514445861812 3.410885523076006 0
-0.5284813267967255 0.4330963797252914 0
-0.6112056716565198 0.5381526602284131 0
-3.450722662647425 0.4617303168093307 0
-3.073555381665337 0.5191599258444122 0
5.868619558005517 -3.403062063369484 0
-3.852100478026858 2.125941512158733 0
-0.6746503193836013 -0.481607463814167 0
0.302311985820536 -3.851327603158417 0
-0.2827232856897353 0.8652155538760757 0
1.267854730410566 3.527619583496683 0
1.297364040105429 3.858067172658778 0
1.623331550651464 3.531667664046036 0
1.685670044165384 3.834539936301962 0
0.6218943926047322 -1.29296499694337 0
-3.812553766501662 2.515451700409194 0
3.572949474241714 -0.609653321095486 0
3.925219966439549 -0.626003061128368 0
-1.678381382725756 4.034657828213667 0
-3.064497741791028 1.287465251716095 0
-0.8371664016367562 1.214527633461317 0
9.113659169480931 1.262903007737455 0
2.523799985657429 1.280085388951635 0
2.659149516799821 1.449422558031336 0
8.821104871906282 -3.110261386295647 0
8.644110493235774 -3.400593070187305 0
9.14314999868755 -2.675352489264734 0
8.808164381710181 -2.328093957026167 0
0.4562657988319859 -1.358686467529422 0
0.2790288735934221 -1.395058846516653 0
3.005067555210317 -1.485217189229841 0
2.634860149411902 -1.590242688259789 0
-0.4868832139039957 0.6202564231287792 0
8.528184295686014 3.796664165829183 0
8.066212934567069 3.766247659690668 0
8.950712314171254 3.816762169205227 0
-1.345906280717756 2.617763896685048 0
-3.694110985711236 0.4895819272101774 0
-0.1545864820167548 -0.729337450877411 0
-3.77789841957485 3.192447539173737 0
4.095548856513481 -0.9164149335190713 0
0.09675817120591279 4.164108153866162 0
7.832855951344032 -3.936293226966002 0
-2.186382905042936 -0.3406086705621127 0
-0.6225697808317745 0.6557292375231865 0
2.889340285360245 1.247209099411416 0
3.135075287410057 1.452688092900869 0
1.874736891890892 3.51967261944964 0
2.022926910530896 3.717337174642887 0
1.796168870318283 4.185611133019754 0
2.275263973419353 3.490200849268257 0
9.041865120311924 -3.658699776938798 0
8.692376935467575 -4.029616612687361 0
-0.7253043261580991 0.1985257069138299 0
-0.7400941708786891 0.02749345433448711 0
-0.9103148924982893 -0.04576343983658693 0
-0.7825698736183924 -0.1067114714234719 0
-0.9362184538928393 -0.1486109964226147 0
9.17324044332922 0.8284678263600874 0
-0.6298059463401792 -0.33366138247613 0
-4.093887538681968 0.113640844833639 0
-0.7346744611766505 -0.7314106373704508 0
-0.116074919763765 -2.656469433187569 0
-0.4350379148567634 -2.682331890913016 0
0.1632810400803918 -2.576563676326571 0
0.3788816893752495 -0.4397073876903846 0
0.4962397559599951 -0.455942745529915 0
0.567797291035498 -0.3713881947877518 0
0.4132824542810433 -0.5336689536218626 0
0.5555460388252194 -0.5453993044592558 0
0.09797211423110175 -0.5832417348179043 0
0.2140329070520461 -0.6468087033430621 0
-0.007368349486695889 -0.600579307984931 0
-0.610085944184699 0.03402831707622257 0
-1.11558115036531 4.361601902622009 0
0.02867062127590327 0.5884791580665181 0
-0.09213194725049674 0.684886440449911 0
-0.1141894352635103 0.823040408303074 0
-0.0001020227689842605 0.8219348655069281 0
0.0455666346914738 0.9131978325840151 0
0.1461137544214544 0.8396010859869857 0
0.2126481169842511 0.9500171804082748 0
0.1056575710797108 1.033977468608296 0
0.3098716431828707 0.8699392561799248 0
0.5317364105284369 -3.286613788952328 0
-0.5825529346415695 -0.05157866896669611 0
-2.104840451606884 4.218012091178054 0
3.286978449723758 1.251392783524893 0
3.443907345088787 1.596051850562712 0
-1.807782316607107 3.534175407412821 0
9.121177334024345 -2.24865234854493 0
-1.407398547865909 0.1610469296446654 0
-1.035686239238446 -1.209887606777074 0
-1.206231607776619 -1.125755407487152 0
-1.223453255004258 2.388750080356285 0
7.7902867792438 1.63879777590845 0
1.461823645017394 -0.6022826065968595 0
-4.196549969849469 2.548478459905223 0
1.017289172867492 -1.540840912763232 0
0.8990669441211953 -1.350774168310611 0
1.111715649846981 -1.184398266034854 0
2.591757645940202 3.665384385343192 0
3.003412341212088 3.793109229514865 0
3.191061207740933 3.426956543100344 0
3.450495835166 3.872530631854428 0
-3.579394511666136 4.045135189833694 0
-4.056568787415612 4.034183597637483 0
9.03122116114862 -1.820473052872287 0
8.896721737425493 -1.394568702437553 0
8.777569518466517 -1.011431543382281 0
1.390498871319575 -1.126348538226135 0
1.117366682244445 -3.866129146957328 0
1.595757554135733 -4.029106609200523 0
1.902980567015709 -3.72951766905564 0
1.919470625106038 -4.091820307296611 0
2.349319378659725 -3.756576683144678 0
1.83209066541494 -4.496282756640396 0
0.7206958147332927 -3.90100371322039 0
8.879563120401196 3.084933575314232 0
-0.3016630828324255 -0.93575213295423 0
-1.781088580317435 -0.7441133545545521 0
-1.682872680127129 -1.082999028908755 0
-1.763432083498126 -1.249609796239531 0
8.794421939741778 4.193300089321094 0
-0.5309066859759601 0.2626868827277562 0
-0.6280589278332093 0.3363782144762364 0
-1.27290424375362 0.3498403405402919 0
-0.2959063860136051 -0.507045099285905 0
-0.3135281538483869 -0.6406327707769769 0
-3.210137217394487 0.9706349695499035 0
-0.3082710782539654 0.9803932976360885 0
-1.597597985724153 0.5821182438447555 0
-1.71809070746754 0.8994753538263672 0
-1.515328912060298 0.8124295637326571 0
-1.418019791397291 1.014594490567277 0
-1.480679599512735 1.268673807220432 0
-1.28925733520678 1.211478982181958 0
3.955074508759571 -1.409068113262149 0
-0.6691936957195627 -0.08549320278103892 0
1.074263461005163 -0.0491451182931938 0
1.231337608297459 0.1859924590137236 0
0.9143778981709919 -0.01891063087010488 0
1.405705307780433 0.1807200927152812 0
0.6697939230524063 0.05470045652934274 0
0.7801916091103599 0.143635017289762 0
0.7668523851204729 0.2877349117829399 0
0.9175974929268764 0.2402699458830804 0
1.29772345946254 0.3962483326456365 0
1.070692266853633 0.300560436836866 0
1.468128032378043 0.3183032960715081 0
1.635437071052935 0.2087526094139989 0
0.8807660356295147 -0.1696729994440798 0
0.7059747912329672 -0.211863172337987 0
0.7583476240407097 -0.1044377392930114 0
0.8315711871811011 0.4009850168795146 0
7.548199895626786 -4.428639580801974 0
-0.7444376983803501 2.740622564202447 0
-0.360615277084243 2.524737743560045 0
-0.1049529021835509 2.819285338335381 0
-0.8197830739746432 -1.449219263549482 0
6.435885375947697 -3.116570449013155 0
6.640898214329547 -2.734412216167394 0
3.607106741157974 3.5134049434971 0
3.87513818762438 3.92159562177353 0
-0.5798744192150124 -0.6423068745684049 0
-0.0841871657287082 1.319490706719315 0
0.07637268599028146 1.495946460834927 0
-0.3435868607626146 -1.542033516172179 0
5.207979545120964 -4.150452478541491 0
0.7310205280055747 -0.5076235701860862 0
6.089856344806983 -3.738654833036261 0
-2.319988814507687 -0.07095665520796424 0
9.152333409869192 -4.14528714306088 0
-0.7942978550018692 -0.5783650078040896 0
-4.570081773609386 1.232671419720101 0
-0.7090592646281685 -2.914528286658229 0
-0.9032674936931436 -2.667752903096812 0
-1.245846337518752 -2.586180312569018 0
-1.816588474769244 -0.3831060904909081 0
-1.792376643922406 2.777950639176867 0
-4.486981863218872 1.620820297444107 0
0.312182367171839 0.6227796841200326 0
0.3562285031318579 0.7288058717373855 0
-2.90108397810329 1.605785135552256 0
-2.649820434017917 1.404932953115812 0
0.9154348098323292 0.1190878663984741 0
-0.6425124766933522 0.8224300661063688 0
-0.5269440753733114 -0.2545860261755973 0
-0.4217001757600441 -1.340489792742974 0
0.2271273598529027 -0.7584862966115155 0
0.3467637072350462 -0.7078088360934829 0
2.423949322931418 -4.563910597940254 0
-0.4255821491358671 -4.596310846003019 0
0.6197686601337061 -4.627158907579484 0
-2.869356783024175 0.0934809259669049 0
-2.640182261072523 0.03919469455355958 0
3.801466127281922 -1.895154002346219 0
9.563028505820148 1.378069138128689 0
-2.464614427167211 1.657700696314624 0
-1.387715974193152 0.542355401543829 0
-0.6078099098165826 -1.401469556715543 0
1.301297762822855 -0.8634665698913683 0
0.05119633323186353 -2.304507164207406 0
3.998936760265166 3.591291850985004 0
4.179493011274792 3.940676490793506 0
4.343242152736009 3.704126314760225 0
4.678363664564515 3.861238006978681 0
3.252562210978473 -4.626515359740765 0
3.405108762578273 4.616077008688234 0
-0.7716042803155345 1.492806061591558 0
0.5037673324170996 4.586723608340055 0
4.055049959372462 -4.598523639157069 0
4.663996715221614 -4.153130796197384 0
4.224118081432829 4.603455747791878 0
-1.505546613197169 -2.868443266772049 0
-1.523618136003667 -2.470517289787013 0
-1.93462456641498 -2.522959432786199 0
1.821488473815074 0.05537338197157514 0
1.953648330443572 0.283023970150079 0
2.958629118053778 -1.798237444136906 0
1.103487312390732 0.4743049511767297 0
0.9740304295924442 0.4379782366821398 0
3.536931096238765 1.273537139977754 0
3.811912463723776 1.67319695681112 0
3.885024992039416 1.303350808193093 0
3.298339016834737 1.931442150895184 0
4.200489030554365 1.705949560108523 0
4.584600168674787 1.733291740044805 0
4.957894000092264 1.765367438227423 0
4.981093859238542 1.489434350854846 0
8.128290016001886 1.651184129808129 0
8.596979073820275 1.669294788893812 0
9.059920579223276 2.210043971457866 0
-2.590773451762568 -4.57509164693946 0
-2.651715671166806 -4.142806036050544 0
-3.206668531483457 -4.13097588789748 0
-3.271220280887404 -3.624338594875486 0
-3.852364159909357 -3.728807658713628 0
-3.570322874776322 -3.315036368689794 0
-2.665842548233556 -3.71456813732932 0
-3.943377906389822 -3.340630382501335 0
-3.993834721395233 -2.940582066137117 0
-4.044294957349768 -2.516115928087216 0
-4.522545217486232 -2.507229042856137 0
-4.096938277434342 -2.093903053162876 0
-3.693987591680715 -2.101895242337196 0
-3.719193034980062 -1.751893697307496 0
-3.454470425604541 -1.796878242835175 0
-3.659287939433721 -1.427025220609086 0
-4.071256184780707 -1.301148749837084 0
-2.041613669607601 -4.153141940300467 0
-1.704279802349835 -4.62247588795339 0
-1.257131397737141 -4.633367675061412 0
-3.022093338603466 -3.245031602166845 0
-4.588422889173135 2.542101029677413 0
-1.918610819470676 2.452593830603528 0
1.493223910594975 2.073500921437615 0
1.406863551829963 1.857990954648505 0
0.9959461208628394 1.923612908338785 0
1.166169576781208 1.688498530672522 0
0.9689214389071615 1.549187162640479 0
1.331601664966105 1.447626878137347 0
0.7047279694265711 1.575815112046105 0
5.263076828146044 4.532169462307637 0
5.507307565343898 4.09495860344378 0
5.969978774604518 4.129741096605785 0
5.714311203645492 3.683592334473064 0
5.289903566730237 3.613874470089102 0
1.687015485319811 1.827069517508122 0
4.33913257020845 -2.160849377337231 0
-0.08032114840392843 -1.369904239412781 0
0.3644922405345121 1.178477805326579 0
-3.626909080735091 -4.567618320683687 0
-4.446898007444023 -0.6324888264478913 0
-4.114529861434711 -0.4136180261275408 0
-4.520581395037481 -1.146571446553994 0
6.227362296753407 4.567135972087478 0
6.443816601367455 4.14074245543488 0
6.921310918119889 4.14548561381866 0
7.201817613401444 4.572353125019695 0
7.398682881228616 4.154567552964965 0
6.633933722781793 3.7243734969412 0
-2.223523986094941 0.2661080335236486 0
2.401277453550821 4.578186960320384 0
-2.18479716491356 -3.689696322628002 0
0.2941508864042819 -0.5009325249555616 0
9.56380212002753 -2.599097252086267 0
0.9102905512196622 -2.71048153846581 0
-2.783178103226401 0.3811919139451433 0
-0.7672375472389551 -0.2931971208493678 0
7.687196772677138 4.580003460141478 0
9.58088464582813 -0.01533188496572824 0
9.168527315666443 0.02632565511050264 0
4.562318747259113 -1.055232581590091 0
0.511534488065097 -0.2825822071731908 0
0.5697191175502883 -0.2052729625569733 0
0.6362863950380593 -0.2938400242806691 0
-1.636927654883091 3.19801895539889 0
0.6109540393711609 -2.598268643864073 0
4.327533124712597 -2.864477721805236 0
4.14383622759685 -2.457102505892358 0
0.6316716102806988 0.2761092892619446 0
9.035408834466319 -0.4595384297797045 0
8.725964989300326 -0.2086587271948901 0
2.442761351397476 2.135795432711401 0
7.50107287671359 1.943665017973343 0
2.447357299828117 -1.869604661860564 0
7.03667438431829 -2.842686097603788 0
6.836183252617144 -2.341685241019445 0
6.412142654722318 -2.290796193512304 0
6.55168199535733 -1.90114582378508 0
1.944482218045226 -2.15192545007604 0
-0.3616180054763761 -4.114601959834669 0
1.368463286349421 0.5931913073174229 0
-4.196329875923267 1.864163235286042 0
6.136319891178819 -4.552919471335347 0
6.262741364314027 -4.03659084318899 0
4.116240365426594 -3.215035561256562 0
4.32438486491843 -3.673770510902004 0
-4.547221391600975 3.50959699567711 0
3.327846446407624 -1.71101863538422 0
4.738929279734246 -2.153411443390146 0
1.228230820250452 -0.5836497300070707 0
4.887362360910256 -0.9124789308263539 0
1.847541986235271 0.6171155925472397 0
-3.541132180816245 4.519767778336755 0
3.945633539346057 -2.123990625733976 0
3.996199104543024 -4.164174595982428 0
6.162869192426333 3.71170529925099 0
5.857609739294646 2.121095930498408 0
6.262752914572229 1.70058761172155 0
6.152800266294559 1.311250234347751 0
5.694313414866178 1.359156800899618 0
6.034850814962818 0.9445498965253772 0
6.489610287603999 0.8042914935013518 0
6.238687251219408 0.5769890198952152 0
5.962196277917279 0.6191826295190251 0
5.783669936535627 1.736033152574485 0
5.273655674924027 1.416347577246956 0
5.624412399387005 0.9990073353340448 0
6.884126463050928 0.8354162637309686 0
6.876168196971637 2.044280539225634 0
6.757362708577054 1.624164516012313 0
6.609916163339197 1.227144592551144 0
9.533902143955737 2.34046225928989 0
9.490290369442564 2.828723884951086 0
-1.962774193704172 -1.253365914911523 0
9.377061234251121 3.845256872038696 0
8.759826729260883 -4.511353512103454 0
1.925609637940837 1.75817765383294 0
-2.54464018691197 4.557008321021803 0
-1.023011983740898 0.1391661040122204 0
0.8814067753770787 1.265127181441434 0
4.515433936326676 -0.2254264424996718 0
4.195746239972129 -0.4125822086075663 0
3.915292750126627 -0.07287251915843773 0
5.696202084396381 -0.02251209410397946 0
6.499149961851002 0.009017013831858222 0
8.284902174206868 -2.417149066715234 0
6.980187455205579 -1.933541341915851 0
2.545855546797685 -1.226977866136694 0
-3.599478334323923 -2.493125545781226 0
1.062016319696861 0.7269441941162427 0
8.076507509755048 -3.522983667094449 0
7.691786033619456 -0.581704986617966 0
8.280787588499697 -0.8276279480122165 0
7.485134364672395 -0.1887246868013696 0
6.184582763213057 -1.49903189417805 0
4.808247741334237 -3.733332153182339 0
-2.787570521565461 -0.5362356140410488 0
2.057704675100254 2.040834167767025 0
0.6932743274382577 0.3772068673654406 0
0.8935235745924824 0.5032006206253199 0
2.662942834557724 -3.406699325757867 0
0.835839380071954 2.129139297471559 0
5.859599619465429 3.284945973514768 0
5.446576093794008 3.243362863031468 0
7.75499874821694 3.340319981250158 0
-3.196300013409243 2.955284215345643 0
0.168969939559833 -1.600589134789922 0
2.702449017751228 -2.102894700161474 0
5.601927014624515 0.3316338691572071 0
4.319812772451673 0.9726987090575626 0
5.107553813794386 -4.570139937171975 0
5.74089561007749 -1.130017650574646 0
5.399297537811332 -1.483206807145334 0
6.565304064484558 -1.123301140288283 0
0.7613865757127705 -3.58908574781276 0
-2.158246083023921 3.385979074470102 0
-0.8982199616029324 -4.217846082489206 0
2.386827879782445 -4.155268770150874 0
8.108436137271704 0.4411820115181612 0
-0.2887302279109699 -1.107562516329036 0
5.612201791418126 -3.000082114277296 0
5.146357978425448 1.01807600497628 0
0.9154091531726393 3.174387884437714 0
8.400058499361148 -3.780796949712705 0
2.878794386490462 -4.213609366390623 0
-1.261326310152908 0.9316666659961074 0
3.292735691119891 -0.6030090327829174 0
3.4487556587045 -0.2739697584009879 0
3.033080966183549 -0.3706410826403005 0
3.174468340607722 0.9803669070750664 0
3.950824335111088 0.9425652572586835 0
1.842328981436083 -3.361851653124062 0
-0.5911290230821727 1.584086048926751 0
4.542757442119446 3.368219776274651 0
8.920275548271821 0.4437260574251354 0
-4.553232274061346 0.322465275464166 0
3.803402723553655 3.155258246306382 0
-0.372419280091266 0.69529544405874 0
-3.738177401341929 -4.139928368658717 0
8.609941117943446 -2.056358656836836 0
3.330452021273557 0.03509572754553351 0
3.575354522094118 -2.654048951237869 0
-0.2500157837640807 0.7541390679772162 0
7.228869388651346 1.485572727801174 0
1.028594576202803 -2.409574257480719 0
0.8658722075871773 0.7021626842976242 0
-3.030881154321932 3.966517626186475 0
5.065937674734442 4.001826828472466 0
-2.935341958183237 0.8163047329794962 0
4.391586060841675 -0.736054169305759 0
1.503571242970198 0.05278567473306495 0
1.357184426588838 4.213366921737407 0
-4.023869066861411 3.462689893632573 0
3.007080020856139 3.038016087653757 0
-4.530641191988853 4.014500935685188 0
2.438772200782324 0.6945361929412694 0
4.9018878863498 3.498856667714005 0
2.54053802361082 -2.940897811840096 0
8.272218274311951 0.05130038363721703 0
-1.699628491796659 -2.112919178424093 0
2.024203737146969 -1.963253531846746 0
-2.091279772715116 4.596973671729435 0
-2.793767425224192 -1.819971150936403 0
-3.865978103624514 -0.2686389279987487 0
-0.06797046655261191 0.9675929120495864 0
-2.921582627520906 -1.58168002700969 0
8.076985417070762 -0.4532514134281099 0
9.556224923478814 4.269766737134908 0
0.07810114423721776 1.209931219099577 0
0.9625120059608199 4.597582522084305 0
0.6236444924565302 -0.1322509796147145 0
-0.4340555239993535 0.5182673870388699 0
-3.014724709687603 2.736735188867188 0
8.235744694427447 -1.530272353769581 0
-1.562727773373173 -0.8753932755426462 0
2.765257251258669 0.1634204920231412 0
0.5386770518087756 0.9727165063119433 0
1.758606576328045 -1.89103083477442 0
0.9300204359923506 4.211321203559104 0
2.292175535824335 3.076306578944226 0
-1.412156418844675 4.217967516976889 0
-4.575193355612122 -4.251006665917994 0
-1.711241249629309 2.09913752863848 0
5.70478401766824 -4.132984156039655 0
0.3581726378690376 -2.973355946325118 0
2.479371814685276 -0.3463841010181656 0
-1.695965021553304 -3.875799168222214 0
-0.01813581766585417 2.101373977046949 0
5.767327362514445 -1.491121241047992 0
2.237054290439799 -1.14405791673825 0
0.2298217499363862 2.57858729222365 0
0.7575110585517169 0.5903021402239864 0
-2.050958870014801 0.08866307661718796 0
1.828629953412228 -3.022769281695722 0
2.245668053810271 1.066139304203983 0
0.4776773051320467 0.7123557062733588 0
-0.4953243160145767 -2.277905767199806 0
6.781012085462439 3.312608415491968 0
1.692589108600692 2.970610062529327 0
-1.678565159153456 -0.1982456800555041 0
-1.201307342761884 0.1989569401536492 0
-0.6053799212909274 3.717649229233212 0
0.1223366342611065 3.794601864915106 0
-0.8747370313015035 2.215044878993531 0
1.681125134079193 1.365402402886678 0
0.6933308054490606 -1.095045978883472 0
0.9090779738855065 -1.064366257041943 0
1.057660189536263 0.1147633099127381 0
-0.7457429157930709 0.570446390798667 0
-1.056293051331593 -2.075438532954506 0
0.9686081221273656 2.780640417502548 0
0.2250938721216419 2.122838995521792 0
3.432940652347447 -4.320110266355259 0
-4.294036831026315 1.092628867436128 0
-0.6744401463041194 -0.01065714907265002 0
-0.2941849831014297 4.12990140356778 0
-0.5567746828885307 1.175619981347046 0
0.6845403674582851 -0.3646373562268203 0
9.404920831827489 -1.084936255696414 0
0.1361201906309576 -0.774483828206564 0
1.312593398963145 1.089245455899628 0
-0.9556170393206077 2.442996399220675 0
0.2480654168945094 0.7738582826452409 0
0.3825267784284886 0.9670460584406261 0
-4.370231035879244 -3.810261204736333 0
9.55319755881337 -3.576621093942452 0
-3.735917979636089 -0.4863310613657402 0
2.402243670412997 -1.382818320858752 0
-1.27191090974763 1.461865951615634 0
-1.060245588764242 1.232215732354114 0
1.123325911633896 -0.7434803316938134 0
1.018411007175036 -0.9062055582784877 0
0.2585379800249151 -1.182677706013549 0
1.74751270268668 0.4040233797317927 0
0.730227251428552 -2.333138622328105 0
0.6935954354598125 -4.251444981242852 0
-4.165352468911708 2.969338200421618 0
-2.002110409143695 -2.189451062770808 0
-3.624658004178026 0.8081563646633909 0
-0.7308376207348984 -0.2034069153527577 0
1.905087595877314 4.586412293042057 0
-0.1962926666446816 0.8945181691937606 0
-2.31872564738432 1.46773238074948 0
-2.414999097526843 1.250891446511292 0
9.582022195586498 0.9131303614564961 0
5.353375869753574 1.767943405829738 0
-1.098215692209154 -0.9672994667378022 0
-0.3153721218475561 2.291987903920515 0
3.705508670735878 -0.4133801463893756 0
-3.355563861078433 2.46536715024553 0
0.2817060694007872 1.062268602077329 0
0.3190413298782542 -1.593180389455064 0
6.750521080124017 -4.178801965143717 0
9.558699848580151 -4.064269857023533 0
8.451856778821805 -1.092359945427447 0
7.10482158734537 3.733000705777965 0
0.7133054560922767 -1.462977434411181 0
-2.662581521890611 0.6750921083571988 0
-2.797705853408134 1.118361174345729 0
2.716945453374501 -0.3703777389028028 0
0.7812170146044561 0.01865020505814186 0
-1.069968536177605 0.3430945597110417 0
0.2684456166006172 -2.210835214452344 0
-4.495526572797659 -2.960354346716908 0
6.115495603502685 -1.877626803243607 0
-1.986539684236681 3.874386536114595 0
1.526040439875812 1.574186167092391 0
0.6580730089180072 -0.04758625283122759 0
3.648398428821091 -1.575923485220956 0
-0.5974425058602899 2.256204207631594 0
0.1892373603338055 -4.212486753133025 0
0.6335515677661943 -0.6364371243742951 0
2.337244531725046 4.069268091980553 0
7.049437830808884 -4.271404852258518 0
0.4579898279271555 -0.6331684481045202 0
6.22311166072103 -2.67369668228215 0
0.6371851101620262 -0.4440628486682189 0
3.94074145664959 -2.776627766800948 0
-1.254773869704678 4.62755480018947 0
2.469583436012622 1.825482020128412 0
-1.111940205992976 0.87321361274041 0
4.970352942849765 2.154787655262295 0
-1.089843755129232 -1.475466214274638 0
4.25927881137362 1.324270614132234 0
-0.3106879116225276 -0.7805478338310683 0
9.005205033992057 3.539853200022144 0
-1.030911376154005 -0.1778637310453973 0
0.9237171158095538 1.061532684246862 0
-0.6707769266261818 0.4367483060244403 0
-4.541670278406832 -2.052759394488484 0
3.38793995353732 4.237484342517909 0
-1.375548725627163 -1.004384433527868 0
0.3914928183616458 -0.8256227433406482 0
-1.431562397250062 -4.325303188495753 0
8.342257615668101 4.18453343929984 0
2.915109519813694 4.180461960795862 0
8.626369658907509 -0.6612686090476088 0
-0.2287032983769688 -0.6384008466988591 0
2.829186458877154 -0.2076821563581113 0
-0.666646743128682 0.1102930243083775 0
7.583335684848796 3.747238483309435 0
1.771483021400564 -1.612698834507496 0
-0.6868933896278838 -2.466640299106108 0
8.990813883969055 2.675763068574688 0
1.019893812421987 0.2174828740252552 0
9.077963710483152 1.742722354402729 0
-4.108292088927218 -1.687469759578797 0
-0.8863337342255362 1.396568830307152 0
9.130515634290104 -3.115109877506137 0
1.292221181305734 3.207907563834274 0
9.548692651064624 -2.127382365336772 0
-0.5511546904538702 0.7278087918178404 0
-0.8675760993482214 -0.2171390349868823 0
-0.1201365815971525 -1.078518670692262 0
-3.458420521365347 2.905295794886465 0
-1.830896037870833 4.268241789426272 0
5.978829376068816 -2.255175305711514 0
8.641389225396694 4.591730124486062 0
-1.134778952523481 2.174160163750885 0
-0.4620096515137507 -0.6573858345116891 0
1.334093946921473 -0.674001949098846 0
1.634911867964709 3.244130446333144 0
-1.638288964659736 2.461304581803713 0
0.5064455619512436 1.740543316741147 0
9.066306353700396 -0.8602883010531502 0
-3.24794256060202 -1.591170516757963 0
-4.047150677605816 0.5740442678117826 0
-0.5546468438576473 -3.818774420018353 0
0.07282595019749181 -1.438332080621937 0
2.597816922997616 1.019236183738892 0
3.844783265852506 4.257912149427194 0
-0.6494591969796822 -1.184727889837429 0
-0.03938459891581483 2.322260817046431 0
1.990156414371869 3.26954947367426 0
2.872610944996406 1.76254656918195 0
0.5193510181115041 -1.54729292240334 0
-1.045315703299116 -0.02370260867199263 0
0.9781200107357021 0.6086741933924438 0
0.3787841987149285 0.8163539221722882 0
-0.06632728083765188 2.560474711062337 0
-0.9094075307039472 -3.768787233947076 0
-3.067019229589929 -1.950957129900926 0
-0.7596630627126104 0.3125220850746124 0
-0.1126406648714476 -0.5908499421212081 0
3.917805311158443 -3.571769392947652 0
8.445516397576629 -0.3147745497776179 0
-2.468958288962357 0.2306411172597814 0
5.992016248279354 0.3109201819414806 0
-3.220868994259054 -2.411276932135058 0
-4.519361546395991 4.512443217683298 0
-0.4791028746382798 -0.5685155852034227 0
-0.8333586498842802 -0.4452615643995801 0
-0.7750348213499437 4.475148421320099 0
9.544383067284096 4.575009477062684 0
-1.492623500697325 -1.196775357104035 0
8.028658816218424 -4.564101574410628 0
9.216488568631185 4.185373427399966 0
0.0549163934766492 4.573072732421945 0
-3.57141246452919 -1.105694510124058 0
-4.555515544366975 -4.565041106389921 0
-0.03106690641433326 1.135111558311941 0
9.544342116059166 -4.534725594488404 0
8.716228244023005 0.1674693534031864 0
4.340033562667513 4.231880279184 0
1.141513036899308 -0.9810918941224973 0
-3.798968934936148 2.90506659558866 0
2.42505078042933 3.280522430710236 0
-0.6490736205564538 0.2349420590323948 0
-0.3674735420787226 -2.440265699871904 0
3.810729440134389 -1.099642195782358 0
-1.411722865083324 2.322305035115794 0
2.30698092264097 -3.29593627686041 0
1.114774157208149 1.289338084110855 0
-3.360426466559628 -2.053337245608597 0
-3.973708260582868 -0.9396749445912538 0
3.147984748060767 2.250506589373045 0
7.873575417652509 4.170623483006705 0
-0.6538576777948726 -0.1887193458372991 0
-3.449747896981165 -2.967976661853808 0
0.4294012839922706 -3.514894949849722 0
-1.279154649133262 3.293918598704562 0
-1.329403691696638 0.7452438913697619 0
6.350714396839415 0.3435728669433984 0
0.3172624746528311 -0.5972457594938689 0
0.3970890452549569 -2.424530379254838 0
0.1687190660964355 1.148457553543997 0
-4.203687054065957 2.146803892438769 0
7.111592523333233 -4.606634532688916 0
0.1124383647672318 -0.6885569002792437 0
6.033782156939615 -3.047304325395257 0
-1.62254153443775 -1.429314292663175 0
0.9469945909508378 0.3523243414504494 0
-0.7054293370843386 0.6994752080063625 0
-0.7002778934045895 -0.6066910786458074 0
-1.963886389152431 -0.1960318739590355 0
-2.636314373477248 -3.326680087065236 0
0.05376775906020476 0.7231719964663667 0
8.472746909617085 -4.355754453801175 0
-0.1826763546754102 -1.446322155219115 0
8.873775130896826 -4.219047032320805 0
8.173098794954107 -4.159497323444855 0
4.257525153762818 -1.232489018005336 0
0.4540689619002839 0.5723080659849074 0
1.673344732019301 1.650730681356476 0
-3.962738207993215 1.766455914248462 0
-1.554272366038345 1.474595637807987 0
9.201164523013279 0.4362236540883062 0
3.715532333995684 2.120419996085193 0
1.274589675531864 -4.24893524878328 0
-1.202833138395764 1.05740742286137 0
-0.6575653779523708 1.326780837537033 0
-1.420572026346503 -0.6851178641780146 0
-1.182552451801426 0.4906933580661355 0
-4.275234719550715 -0.1565119288067641 0
0.7667727474500587 1.756683401634447 0
-4.254703757630457 -4.154448543593873 0
4.555107651406677 2.128740000462283 0
4.706335280289683 1.313681196493424 0
-0.6646754780244893 2.489015486410572 0
5.595599205281666 0.6646197074841599 0
-1.486910991572385 2.886276746669703 0
-1.08373447555072 -2.446055689314266 0
0.07848410684756264 1.322811907783381 0
-0.667158811947666 4.081871163228013 0
3.22910823972382 -1.395362868550522 0
-3.838163295687502 -0.656332235949096 0
1.479963603151583 -4.72810225358571 0
-0.2526284158373778 -1.282483265109408 0
2.76261464907039 3.26202540944251 0
2.1295100125402 -1.618400403202914 0
3.207390036112607 -0.1430710078333594 0
6.24014077421098 -3.481843799972505 0
-2.901555862171365 -3.006548584383914 0
1.556272284958394 0.5083876288014948 0
-2.570322747873965 -0.1690331572174576 0
-1.311053234593381 -1.315884558142925 0
-0.191648804178192 0.9902790395418124 0
-3.942046711352261 0.9387456769651964 0
0.5734963380641774 -0.01371647476250909 0
0.7792659045824593 -1.196351394989848 0
-0.1856600189514374 -2.385544756676726 0
-0.2166779049509786 0.64457047871096 0
-3.344156673944118 0.6767383644714072 0
$EndNodes
$Elements
9 1492 1 1492
1 1 1 30
1 1 9 
2 9 10 
3 10 11 
4 11 12 
5 12 13 
6 13 14 
7 14 15 
8 15 16 
9 16 17 
10 17 18 
11 18 19 
12 19 20 
13 20 21 
14 21 22 
15 22 23 
16 23 24 
17 24 25 
18 25 26 
19 26 27 
20 27 28 
21 28 29 
22 29 30 
23 30 31 
24 31 32 
25 32 33 
26 33 34 
27 34 35 
28 35 36 
29 36 37 
30 37 2 
1 2 1 20
31 2 38 
32 38 39 
33 39 40 
34 40 41 
35 41 42 
36 42 43 
37 43 44 
38 44 45 
39 45 46 
40 46 47 
41 47 48 
42 48 49 
43 49 50 
44 50 51 
45 51 52 
46 52 53 
47 53 54 
48 54 55 
49 55 56 
50 56 3 
1 3 1 30
51 3 57 
52 57 58 
53 58 59 
54 59 60 
55 60 61 
56 61 62 
57 62 63 
58 63 64 
59 64 65 
60 65 66 
61 66 67 
62 67 68 
63 68 69 
64 69 70 
65 70 71 
66 71 72 
67 72 73 
68 73 74 
69 74 75 
70 75 76 
71 76 77 
72 77 78 
73 78 79 
74 79 80 
75 80 81 
76 81 82 
77 82 83 
78 83 84 
79 84 85 
80 85 4 
1 4 1 20
81 4 86 
82 86 87 
83 87 88 
84 88 89 
85 89 90 
86 90 91 
87 91 92 
88 92 93 
89 93 94 
90 94 95 
91 95 96 
92 96 97 
93 97 98 
94 98 99 
95 99 100 
96 100 101 
97 101 102 
98 102 103 
99 103 104 
100 104 1 
1 5 1 8
101 5 105 
102 105 106 
103 106 107 
104 107 108 
105 108 109 
106 109 110 
107 110 111 
108 111 6 
1 6 1 8
109 6 112 
110 112 113 
111 113 114 
112 114 115 
113 115 116 
114 116 117 
115 117 118 
116 118 7 
1 7 1 8
117 7 119 
118 119 120 
119 120 121 
120 121 122 
121 122 123 
122 123 124 
123 124 125 
124 125 8 
1 8 1 8
125 8 126 
126 126 127 
127 127 128 
128 128 129 
129 129 130 
130 130 131 
131 131 132 
132 132 5 
2 1 3 1360
133 1038 1029 1328 708 
134 827 22 23 902 
135 1010 1261 689 1028 
136 1391 934 937 517 
137 995 961 1170 578 
138 1268 839 1303 699 
139 680 1186 752 1199 
140 414 463 1184 802 
141 797 1145 1061 707 
142 1341 921 75 76 
143 1419 338 329 1266 
144 178 817 816 1036 
145 886 774 1286 887 
146 1175 1083 1321 1129 
147 1007 1201 629 863 
148 928 929 1217 861 
149 939 1229 494 1265 
150 1330 882 1176 993 
151 810 1240 350 809 
152 1289 161 1055 943 
153 743 1155 191 1121 
154 845 473 843 844 
155 807 358 274 611 
156 1057 333 1374 833 
157 1330 906 1418 882 
158 783 1327 749 683 
159 608 603 731 1213 
160 1113 241 933 798 
161 1365 844 842 910 
162 1108 1101 902 147 
163 165 1130 707 1061 
164 917 1140 978 1131 
165 1008 800 1099 457 
166 826 1101 1108 688 
167 942 941 650 652 
168 849 1198 765 767 
169 213 211 502 1035 
170 838 839 1281 142 
171 1113 756 1313 445 
172 342 842 844 843 
173 941 540 1016 806 
174 1066 1232 728 1065 
175 1209 167 1292 762 
176 880 1260 780 1255 
177 573 699 1303 875 
178 391 427 512 869 
179 547 1296 768 1270 
180 1065 728 751 1133 
181 1036 816 1130 165 
182 572 809 283 281 
183 811 572 278 821 
184 1025 1370 148 891 
185 1138 1030 1136 817 
186 1286 474 1405 887 
187 145 190 113 112 
188 818 801 1294 160 
189 454 909 340 450 
190 241 1114 935 933 
191 960 986 150 1290 
192 1121 191 1425 1126 
193 1013 1280 820 1308 
194 392 439 576 927 
195 1327 783 8 125 
196 814 488 1120 873 
197 965 148 1370 808 
198 625 1255 780 1258 
199 144 996 128 127 
200 774 886 584 661 
201 1380 193 1206 791 
202 794 1207 1234 792 
203 1277 963 156 1100 
204 921 1153 74 75 
205 1045 1051 649 1054 
206 1244 864 862 852 
207 926 1143 1221 927 
208 1015 1263 1318 508 
209 50 908 1228 49 
210 1131 137 1347 917 
211 1273 955 1290 150 
212 353 1212 847 1213 
213 1319 1240 725 739 
214 1085 660 1398 969 
215 250 249 404 973 
216 1389 846 847 1212 
217 462 1182 1305 1293 
218 809 572 811 810 
219 870 690 803 1266 
220 498 884 1335 496 
221 629 617 616 862 
222 1106 1194 462 1293 
223 473 846 1389 301 
224 1359 936 1391 395 
225 1006 1007 863 1154 
226 927 576 925 926 
227 863 864 1251 1154 
228 541 907 1252 1031 
229 215 929 266 216 
230 151 1145 797 1299 
231 1227 1226 909 895 
232 1133 751 1385 1004 
233 907 541 542 1037 
234 469 889 701 831 
235 1087 978 1140 522 
236 318 316 1319 1235 
237 1054 649 1127 1053 
238 1183 387 1378 889 
239 1224 760 1256 994 
240 830 635 749 1268 
241 145 786 1380 787 
242 1320 463 443 1270 
243 1020 1300 429 1259 
244 629 862 864 863 
245 419 1087 522 412 
246 770 552 139 898 
247 632 683 749 635 
248 422 1082 856 865 
249 356 377 910 842 
250 61 1001 163 60 
251 1111 1232 1066 233 
252 223 1113 445 220 
253 980 1037 542 1011 
254 181 182 196 195 
255 614 616 617 618 
256 1016 1052 1053 1127 
257 900 1203 632 630 
258 418 928 861 1134 
259 802 377 356 376 
260 939 1265 1400 938 
261 1027 1167 175 1026 
262 841 599 684 720 
263 880 620 617 629 
264 1001 1360 1278 163 
265 132 1006 1154 133 
266 1038 923 1079 1029 
267 184 1422 1251 854 
268 862 616 850 852 
269 772 500 571 573 
270 1362 964 1416 490 
271 1324 1100 1023 1311 
272 1264 608 1393 1109 
273 308 262 660 1085 
274 873 1120 493 914 
275 1076 1238 820 1280 
276 968 967 366 501 
277 841 596 597 599 
278 573 875 1377 772 
279 1078 1172 589 1248 
280 1346 1142 1329 1014 
281 202 1160 681 200 
282 811 821 912 1348 
283 1081 676 979 1060 
284 854 1251 864 1244 
285 156 963 15 16 
286 42 997 167 41 
287 515 456 457 1099 
288 501 969 970 968 
289 463 414 415 443 
290 188 712 836 835 
291 342 843 303 304 
292 1001 61 62 990 
293 595 596 598 594 
294 350 316 315 314 
295 671 888 926 925 
296 802 376 386 414 
297 1252 848 1353 646 
298 899 878 1382 1411 
299 842 342 343 356 
300 1255 625 624 622 
301 593 594 876 592 
302 893 892 1386 1179 
303 612 611 270 418 
304 961 995 950 945 
305 301 303 843 473 
306 472 496 1335 547 
307 609 537 539 867 
308 1283 764 694 765 
309 1047 1331 1366 1046 
310 699 573 571 574 
311 867 539 655 709 
312 138 1094 879 923 
313 186 187 839 838 
314 1301 163 1278 834 
315 321 913 1246 319 
316 359 311 312 1128 
317 912 821 276 358 
318 1411 686 1297 1103 
319 925 580 582 671 
320 887 671 582 886 
321 1158 831 702 832 
322 435 1016 540 468 
323 831 701 549 702 
324 537 609 869 512 
325 615 850 616 614 
326 268 266 929 928 
327 977 1086 546 1039 
328 184 183 106 105 
329 1011 662 1032 980 
330 905 906 1330 999 
331 608 1213 847 1393 
332 181 194 109 108 
333 807 1304 912 358 
334 391 869 1323 1174 
335 1116 290 292 920 
336 698 773 774 661 
337 1094 175 1167 879 
338 449 966 455 451 
339 1080 561 533 489 
340 561 905 566 533 
341 549 701 754 640 
342 584 586 698 661 
343 613 612 615 614 
344 114 113 190 189 
345 944 149 961 945 
346 1196 172 922 1038 
347 914 493 1117 916 
348 828 1098 1363 719 
349 146 994 1256 1279 
350 284 286 593 592 
351 642 644 1192 607 
352 658 527 525 998 
353 930 1091 416 486 
354 166 829 1287 1056 
355 454 894 895 909 
356 460 545 730 894 
357 987 988 989 153 
358 891 885 1197 697 
359 851 858 931 859 
360 351 1242 1132 1241 
361 392 927 1221 354 
362 1261 1010 662 1011 
363 242 239 518 1034 
364 694 764 1326 645 
365 333 1057 464 336 
366 960 1358 984 986 
367 1341 76 77 158 
368 488 814 1412 1137 
369 150 986 97 98 
370 1242 351 1227 895 
371 903 156 16 17 
372 904 169 18 19 
373 304 306 343 342 
374 676 368 366 967 
375 984 168 95 96 
376 1083 865 1375 932 
377 545 562 840 730 
378 148 91 92 891 
379 944 13 14 149 
380 902 23 24 147 
381 847 846 473 845 
382 764 1351 836 1326 
383 994 146 70 71 
384 270 268 928 418 
385 126 8 783 781 
386 1045 482 382 1051 
387 253 284 592 877 
388 91 148 965 90 
389 15 962 149 14 
390 383 323 322 878 
391 1276 626 624 625 
392 566 905 999 715 
393 1081 704 1263 1015 
394 886 582 583 584 
395 129 128 996 776 
396 684 599 597 600 
397 580 925 576 577 
398 251 877 1406 397 
399 508 384 372 1015 
400 377 802 1184 837 
401 73 74 1153 155 
402 375 322 321 320 
403 922 172 25 26 
404 1276 625 1258 901 
405 159 1361 770 898 
406 919 174 68 69 
407 982 487 246 248 
408 896 852 850 1191 
409 283 314 315 312 
410 549 640 1080 479 
411 878 899 911 383 
412 318 317 315 316 
413 283 809 350 314 
414 1105 1050 1043 1049 
415 974 66 67 137 
416 179 10 11 983 
417 79 80 1145 151 
418 153 63 64 987 
419 1275 1338 1419 804 
420 662 437 373 1032 
421 1301 834 1340 180 
422 1080 640 1418 561 
423 982 248 251 397 
424 950 947 946 945 
425 911 870 325 383 
426 1023 903 169 1254 
427 176 1002 1003 1013 
428 313 360 400 1022 
429 968 979 676 967 
430 872 1018 503 1019 
431 1252 907 700 848 
432 955 953 1072 956 
433 169 903 17 18 
434 154 904 19 20 
435 404 1063 1356 971 
436 1236 1027 1026 152 
437 1220 1136 1030 171 
438 1070 1021 1020 1019 
439 972 1250 968 970 
440 1048 1043 1042 1041 
441 147 24 25 918 
442 1010 477 437 662 
443 1114 1093 1267 935 
444 146 919 69 70 
445 1224 994 71 72 
446 170 12 13 944 
447 986 984 96 97 
448 358 276 275 274 
449 472 443 415 446 
450 138 922 26 27 
451 174 924 67 68 
452 839 1268 749 1281 
453 1002 47 48 135 
454 947 950 1379 964 
455 772 498 499 500 
456 1049 940 1401 1105 
457 1306 966 449 1166 
458 519 1097 692 1078 
459 138 923 1038 922 
460 356 357 386 376 
461 173 65 66 974 
462 1050 1044 1042 1043 
463 382 394 649 1051 
464 926 888 1405 337 
465 549 479 465 464 
466 265 260 1034 1004 
467 891 92 93 885 
468 182 1082 422 196 
469 1030 88 89 171 
470 944 945 946 170 
471 821 278 277 276 
472 612 613 807 611 
473 29 30 1026 175 
474 808 1220 171 965 
475 472 446 497 496 
476 171 89 90 965 
477 702 549 464 1057 
478 1166 309 1354 1306 
479 504 1018 590 521 
480 268 267 225 266 
481 494 1040 420 413 
482 1048 1041 436 1040 
483 477 1010 1028 554 
484 1377 718 1335 884 
485 974 975 976 173 
486 425 345 344 265 
487 65 173 987 64 
488 1126 720 684 1121 
489 176 46 47 1002 
490 447 1071 558 467 
491 582 580 579 581 
492 521 590 591 588 
493 1093 245 1401 1267 
494 82 83 1036 165 
495 439 511 577 576 
496 908 50 51 161 
497 1047 1046 1045 1044 
498 1112 523 524 1110 
499 572 281 280 278 
500 607 605 604 606 
501 953 955 1273 954 
502 153 989 991 990 
503 1105 235 1403 1050 
504 1040 436 431 420 
505 1091 930 742 1017 
506 1086 977 978 1087 
507 238 240 244 1067 
508 1055 52 53 1056 
509 871 590 1018 872 
510 12 170 983 11 
511 152 1026 30 31 
512 975 977 1039 976 
513 286 1116 677 593 
514 1016 435 433 1052 
515 161 51 52 1055 
516 1241 999 1330 339 
517 318 320 321 319 
518 969 501 364 1085 
519 990 62 63 153 
520 178 1036 83 84 
521 977 975 1131 978 
522 166 54 55 1058 
523 229 1064 237 231 
524 303 301 300 302 
525 1056 53 54 166 
526 673 258 310 1068 
527 1312 375 320 1090 
528 177 1059 35 36 
529 1123 738 801 818 
530 930 486 541 1031 
531 1424 1352 774 773 
532 1053 1052 436 1041 
533 642 607 606 641 
534 1034 260 259 242 
535 1277 961 149 962 
536 215 1035 1217 929 
537 1019 503 471 1070 
538 1097 519 424 379 
539 425 700 980 345 
540 1045 1046 1366 482 
541 416 483 541 486 
542 468 540 654 528 
543 586 584 583 585 
544 540 941 942 654 
545 907 1037 980 700 
546 239 237 1064 518 
547 1044 1045 1054 1042 
548 1380 786 192 193 
549 818 160 1202 819 
550 947 949 951 948 
551 1321 1073 204 1129 
552 1018 504 485 503 
553 551 737 801 738 
554 1158 832 1338 1275 
555 1021 1070 424 519 
556 531 1275 804 1230 
557 970 971 1356 972 
558 361 362 1068 310 
559 1188 1250 972 236 
560 519 1078 1248 1021 
561 143 835 836 1351 
562 359 1128 998 525 
563 258 673 1067 244 
564 992 988 976 1039 
565 701 889 1378 754 
566 436 1052 433 431 
567 477 476 428 437 
568 482 362 381 382 
569 745 657 711 744 
570 165 1061 81 82 
571 25 172 1196 918 
572 504 521 557 520 
573 1019 1020 1259 872 
574 557 706 866 753 
575 168 1119 94 95 
576 569 729 1249 800 
577 468 528 656 514 
578 602 605 1376 897 
579 765 1198 784 1283 
580 521 588 706 557 
581 829 711 657 656 
582 678 663 652 651 
583 1073 363 208 206 
584 554 553 476 477 
585 520 505 485 504 
586 435 468 514 448 
587 503 485 484 471 
588 27 28 1094 138 
589 274 271 270 611 
590 1289 943 654 942 
591 736 735 551 550 
592 941 806 648 650 
593 175 1094 28 29 
594 260 265 344 264 
595 433 435 448 434 
596 491 1084 688 563 
597 988 987 173 976 
598 1042 1054 1053 1041 
599 268 270 271 269 
600 530 658 1168 795 
601 431 433 434 432 
602 271 274 275 273 
603 300 301 1389 298 
604 947 964 1362 949 
605 1328 1029 554 1028 
606 1070 471 470 424 
607 1065 1064 229 1066 
608 1057 833 832 702 
609 558 1071 1211 742 
610 440 651 652 650 
611 769 732 652 663 
612 890 457 456 455 
613 394 648 1127 649 
614 394 440 650 648 
615 1228 908 732 769 
616 247 222 1271 1063 
617 614 618 1033 613 
618 1362 490 1332 1072 
619 1192 1376 605 607 
620 484 485 505 1069 
621 1379 511 439 510 
622 558 742 930 741 
623 336 464 465 355 
624 970 969 1398 971 
625 824 825 1101 826 
626 594 598 1344 876 
627 1085 364 348 308 
628 394 382 381 393 
629 420 431 432 430 
630 550 551 1069 505 
631 1087 419 430 1086 
632 870 911 1315 690 
633 1039 546 1181 992 
634 437 428 374 373 
635 258 263 349 310 
636 310 349 378 361 
637 520 557 753 1074 
638 244 257 263 258 
639 1107 736 550 1074 
640 1032 373 346 344 
641 240 243 257 244 
642 903 1023 1100 156 
643 916 915 874 914 
644 5 1422 184 105 
645 656 657 1088 514 
646 253 255 285 284 
647 505 520 1074 550 
648 349 379 423 378 
649 637 400 401 402 
650 378 423 495 1075 
651 224 233 1066 227 
652 1066 229 228 227 
653 379 424 470 423 
654 400 637 1144 1022 
655 413 420 430 419 
656 589 346 373 374 
657 1099 668 665 515 
658 1035 215 214 213 
659 1017 637 402 1091 
660 716 555 675 682 
661 580 577 578 579 
662 239 242 243 240 
663 639 823 825 824 
664 231 237 238 234 
665 237 239 240 238 
666 368 676 1081 370 
667 496 497 499 498 
668 403 416 1091 402 
669 303 302 305 304 
670 480 489 532 534 
671 181 134 1012 182 
672 411 413 419 412 
673 926 337 330 1143 
674 873 815 813 814 
675 304 305 339 306 
676 522 410 411 412 
677 93 94 1119 157 
678 553 554 1029 1079 
679 1156 458 516 1089 
680 914 874 815 873 
681 411 410 408 409 
682 545 544 696 562 
683 501 366 365 364 
684 344 345 980 1032 
685 284 285 287 286 
686 362 361 1077 381 
687 46 176 1202 45 
688 432 546 1086 430 
689 409 408 406 407 
690 555 553 1079 675 
691 723 758 759 724 
692 678 651 440 1102 
693 234 232 230 231 
694 529 639 824 1115 
695 427 507 513 512 
696 514 1088 536 448 
697 231 230 228 229 
698 1117 1140 917 916 
699 1040 494 1229 1048 
700 894 730 1242 895 
701 164 1208 948 951 
702 407 406 396 405 
703 630 632 633 631 
704 1113 223 226 241 
705 489 533 565 532 
706 762 883 1237 1209 
707 461 548 1060 687 
708 747 805 1205 709 
709 1376 755 1295 897 
710 260 264 1096 259 
711 762 736 1107 763 
712 232 245 1093 230 
713 383 325 324 323 
714 551 738 1123 1069 
715 202 246 487 1160 
716 137 1131 975 974 
717 266 225 217 216 
718 658 530 529 527 
719 512 513 538 537 
720 361 378 1075 1077 
721 392 438 510 439 
722 617 620 619 618 
723 488 389 395 396 
724 489 480 479 1080 
725 67 924 1347 137 
726 721 723 724 722 
727 647 727 1110 560 
728 995 578 577 511 
729 429 428 476 1104 
730 1391 936 799 934 
731 228 226 224 227 
732 537 538 567 539 
733 1015 372 370 1081 
734 394 393 1102 440 
735 393 381 1077 441 
736 1214 1215 1348 912 
737 1064 1065 1133 518 
738 257 692 1097 263 
739 360 399 401 400 
740 242 259 1095 243 
741 1067 1092 234 238 
742 516 666 669 667 
743 141 194 1386 892 
744 483 416 403 417 
745 379 349 263 1097 
746 344 346 1096 264 
747 1004 1034 518 1133 
748 692 257 243 1095 
749 181 195 1386 194 
750 953 952 1362 1072 
751 849 796 784 1198 
752 851 859 1288 1191 
753 594 593 677 595 
754 931 932 1375 859 
755 287 289 291 290 
756 760 1224 155 1135 
757 384 388 389 385 
758 533 566 636 565 
759 879 675 1079 923 
760 790 789 1380 791 
761 230 1093 1114 228 
762 88 1030 1138 87 
763 553 555 1104 476 
764 545 460 543 544 
765 566 714 748 636 
766 283 282 280 281 
767 509 721 722 664 
768 689 492 563 564 
769 359 525 526 398 
770 1016 1127 648 806 
771 1157 484 1069 1123 
772 1116 920 1394 677 
773 186 122 121 139 
774 688 672 564 563 
775 615 851 1191 850 
776 897 600 601 602 
777 1327 125 124 142 
778 835 143 118 117 
779 1237 39 40 1209 
780 1101 825 827 902 
781 451 455 456 453 
782 1401 245 232 1105 
783 786 145 112 6 
784 894 454 459 460 
785 372 384 385 478 
786 935 934 799 933 
787 234 235 1105 232 
788 898 120 119 159 
789 818 819 1157 1123 
790 563 492 417 491 
791 192 141 892 193 
792 1110 524 559 560 
793 856 1082 182 1012 
794 622 621 619 620 
795 413 411 1265 494 
796 767 765 694 766 
797 635 830 1103 1297 
798 1266 329 328 327 
799 827 1410 21 22 
800 715 999 1241 1132 
801 471 484 1157 470 
802 1140 1117 410 522 
803 1331 1047 1403 1092 
804 466 467 524 523 
805 525 527 529 526 
806 1139 214 215 216 
807 170 946 1122 983 
808 1113 798 757 756 
809 467 558 559 524 
810 637 1017 1413 1144 
811 541 483 1125 542 
812 982 1234 1207 487 
813 368 367 365 366 
814 290 291 293 292 
815 1027 591 1415 881 
816 954 1273 99 100 
817 448 536 1181 434 
818 134 181 108 107 
819 675 879 1167 682 
820 1312 1090 1235 740 
821 1143 330 331 332 
822 226 223 221 224 
823 1134 853 851 615 
824 372 371 369 370 
825 933 799 757 798 
826 312 311 282 283 
827 1110 727 1232 1111 
828 370 369 367 368 
829 290 1116 286 287 
830 956 1072 1332 1357 
831 947 948 1122 946 
832 667 669 1136 750 
833 1000 770 1361 1223 
834 241 226 228 1114 
835 479 480 481 465 
836 336 334 332 333 
837 140 188 116 115 
838 838 123 122 186 
839 571 500 499 570 
840 200 681 1179 198 
841 877 251 252 253 
842 355 352 334 336 
843 954 100 101 1247 
844 410 1117 493 408 
845 1340 1058 55 1151 
846 1211 1071 447 1173 
847 1027 1236 588 591 
848 983 1122 1399 179 
849 221 219 1159 674 
850 483 417 492 1125 
851 272 447 467 466 
852 418 1134 615 612 
853 624 623 621 622 
854 321 335 1424 913 
855 1075 1150 441 1077 
856 905 561 1418 906 
857 509 1106 1293 721 
858 665 516 458 515 
859 816 817 1136 669 
860 438 392 380 444 
861 1008 1364 569 800 
862 363 931 858 1024 
863 408 493 1120 406 
864 392 354 352 380 
865 223 220 219 221 
866 320 318 1235 1090 
867 192 786 6 111 
868 399 360 359 398 
869 327 326 324 325 
870 331 330 328 329 
871 1139 216 217 218 
872 1061 1145 80 81 
873 298 299 340 300 
874 605 602 603 604 
875 899 691 1315 911 
876 406 1120 488 396 
877 168 1397 771 1119 
878 586 585 703 587 
879 450 452 459 454 
880 93 157 1197 885 
881 547 1270 443 472 
882 705 679 569 568 
883 188 835 117 116 
884 1009 998 1128 1218 
885 445 218 219 220 
886 628 627 624 626 
887 1106 509 506 426 
888 1161 282 311 313 
889 822 638 1098 828 
890 294 295 297 296 
891 515 458 453 456 
892 529 638 822 639 
893 141 192 111 110 
894 136 1005 131 130 
895 292 293 295 294 
896 384 508 1359 388 
897 495 1076 1150 1075 
898 360 313 311 359 
899 423 470 1157 495 
900 142 124 123 838 
901 1081 1060 548 704 
902 159 119 7 796 
903 393 441 1142 1102 
904 322 323 335 321 
905 796 7 118 784 
906 964 1379 510 1416 
907 139 121 120 898 
908 1153 1162 1135 155 
909 186 139 552 187 
910 276 277 279 275 
911 937 938 1400 517 
912 529 530 1098 638 
913 609 867 1402 868 
914 851 853 860 858 
915 1206 893 1322 794 
916 396 395 1391 405 
917 737 997 1294 801 
918 1240 1319 316 350 
919 44 160 1294 43 
920 107 106 183 134 
921 233 224 221 1124 
922 475 733 734 653 
923 140 1155 712 188 
924 273 272 269 271 
925 773 698 1168 775 
926 362 482 1366 1068 
927 202 222 247 246 
928 1389 1212 294 296 
929 642 645 1326 644 
930 60 163 1301 59 
931 110 109 194 141 
932 536 1239 992 1181 
933 1012 185 855 856 
934 1027 881 682 1167 
935 453 452 450 451 
936 715 1132 840 1426 
937 451 450 340 449 
938 730 840 1132 1242 
939 461 475 653 548 
940 401 399 1177 442 
941 669 666 1130 816 
942 628 626 1276 630 
943 115 114 189 140 
944 516 665 1130 666 
945 1043 1048 1229 1049 
946 507 427 426 506 
947 746 834 1278 744 
948 600 897 1295 684 
949 427 391 390 426 
950 488 1137 385 389 
951 246 247 249 248 
952 166 1269 711 829 
953 417 403 1141 491 
954 498 772 1377 884 
955 130 129 776 136 
956 132 131 1005 1006 
957 289 287 285 288 
958 1188 687 1387 1250 
959 201 200 198 199 
960 866 33 34 1339 
961 183 184 854 185 
962 251 248 249 250 
963 664 535 506 509 
964 31 32 1371 152 
965 529 1115 1177 526 
966 562 696 1421 1222 
967 546 432 434 1181 
968 688 1108 1196 672 
969 255 253 252 254 
970 402 401 1141 403 
971 15 963 1277 962 
972 85 4 86 1333 
973 203 202 200 201 
974 332 331 1374 333 
975 57 1337 56 3 
976 167 997 737 1292 
977 214 1178 212 213 
978 348 347 307 308 
979 668 707 1130 665 
980 212 1178 475 461 
981 775 1368 1246 913 
982 127 126 781 144 
983 313 1022 1144 1161 
984 830 574 691 1103 
985 502 211 210 209 
986 736 762 1292 735 
987 660 262 261 256 
988 578 1170 670 579 
989 652 732 1289 942 
990 956 957 1290 955 
991 792 791 1206 794 
992 213 212 210 211 
993 426 390 1194 1106 
994 645 693 1062 694 
995 217 225 710 1159 
996 791 792 793 790 
997 273 275 279 1173 
998 9 1343 104 1 
999 346 589 1172 1096 
1000 657 745 1284 1088 
1001 308 307 261 262 
1002 236 1204 209 210 
1003 688 1084 1355 826 
1004 203 201 1129 204 
1005 1005 136 777 778 
1006 37 2 38 1345 
1007 72 73 155 1224 
1008 355 1146 380 352 
1009 596 841 1420 598 
1010 951 952 1247 164 
1011 1413 1017 742 1211 
1012 399 398 526 1177 
1013 739 634 1216 740 
1014 709 1205 1402 867 
1015 1002 135 1390 1003 
1016 259 1096 1172 1095 
1017 565 636 771 1147 
1018 1134 861 860 853 
1019 160 44 45 1202 
1020 218 217 1159 219 
1021 602 601 731 603 
1022 687 1060 979 1387 
1023 390 391 1174 347 
1024 717 543 1233 726 
1025 569 679 1164 729 
1026 272 273 1173 447 
1027 722 724 760 1135 
1028 875 610 718 1377 
1029 1078 692 1095 1172 
1030 209 1204 207 208 
1031 695 752 1186 535 
1032 1102 1142 1346 678 
1033 596 595 1200 597 
1034 185 1012 134 183 
1035 236 972 1356 1204 
1036 630 631 1216 628 
1037 656 528 1287 829 
1038 968 1250 1387 979 
1039 307 556 1195 261 
1040 1073 206 205 204 
1041 372 478 1163 371 
1042 1356 1063 1271 575 
1043 458 1156 452 453 
1044 998 1009 1168 658 
1045 364 365 1194 348 
1046 729 1299 797 1249 
1047 919 146 1279 1274 
1048 41 167 1209 40 
1049 1038 708 672 1196 
1050 627 634 739 725 
1051 465 1149 1146 355 
1052 1063 404 249 247 
1053 627 1189 623 624 
1054 164 102 103 1208 
1055 1407 1199 158 1336 
1056 880 1255 622 620 
1057 570 659 803 690 
1058 934 935 1267 937 
1059 770 1000 1335 718 
1060 687 1188 212 461 
1061 201 199 1175 1129 
1062 292 294 1212 353 
1063 208 207 205 206 
1064 909 1226 300 340 
1065 352 354 1221 334 
1066 1028 689 564 1328 
1067 865 1083 1175 422 
1068 539 567 1364 655 
1069 268 269 1169 267 
1070 790 1148 788 789 
1071 642 641 1396 1245 
1072 225 267 1169 710 
1073 1317 1305 1182 421 
1074 766 768 1296 767 
1075 681 1207 794 1322 
1076 340 299 1166 449 
1077 535 664 1162 695 
1078 1359 508 1318 936 
1079 984 985 1397 168 
1080 1044 1050 1403 1047 
1081 147 918 1196 1108 
1082 574 830 1268 699 
1083 799 936 1318 757 
1084 633 685 1216 631 
1085 191 1155 140 189 
1086 743 713 712 1155 
1087 705 785 1164 679 
1088 466 1169 269 272 
1089 347 348 1194 390 
1090 1407 1336 785 705 
1091 746 1269 166 1058 
1092 298 297 1166 299 
1093 683 1372 781 783 
1094 315 1218 1128 312 
1095 921 695 1162 1153 
1096 513 507 1186 680 
1097 135 48 49 1228 
1098 118 143 1283 784 
1099 1184 463 1320 1062 
1100 560 646 1353 647 
1101 356 343 1176 357 
1102 567 538 1185 568 
1103 306 993 1176 343 
1104 295 309 1166 297 
1105 778 1007 1006 1005 
1106 1049 1229 939 940 
1107 532 565 1147 1210 
1108 664 722 1135 1162 
1109 1344 1148 790 793 
1110 896 857 856 855 
1111 600 597 1200 601 
1112 988 992 1239 989 
1113 1218 341 1368 1009 
1114 371 421 1182 369 
1115 647 728 1232 727 
1116 779 777 136 776 
1117 367 462 1194 365 
1118 892 893 1206 193 
1119 770 718 610 552 
1120 256 1307 1398 660 
1121 1007 778 1260 1201 
1122 707 668 1249 797 
1123 158 77 78 1336 
1124 265 1004 1385 425 
1125 803 659 1230 804 
1126 775 913 1424 773 
1127 1109 1393 847 845 
1128 357 387 1183 386 
1129 414 386 1183 415 
1130 943 1055 1056 1287 
1131 330 337 1193 328 
1132 538 513 680 1185 
1133 207 575 1271 205 
1134 474 1193 337 1405 
1135 98 99 1273 150 
1136 828 719 1254 1219 
1137 685 633 1297 686 
1138 1388 717 1370 1025 
1139 317 341 1218 315 
1140 556 307 347 1174 
1141 1378 387 357 1176 
1142 574 571 1315 691 
1143 198 197 1175 199 
1144 1013 1003 1346 1014 
1145 322 375 1382 878 
1146 455 966 1306 890 
1147 548 653 1263 704 
1148 196 422 1175 197 
1149 891 697 1388 1025 
1150 305 302 1227 351 
1151 507 506 535 1186 
1152 724 759 1256 760 
1153 1312 981 1382 375 
1154 1168 1009 1368 775 
1155 292 353 1291 920 
1156 324 1180 335 323 
1157 327 328 1193 326 
1158 255 1171 288 285 
1159 236 210 212 1188 
1160 102 164 1247 101 
1161 747 1404 890 1306 
1162 369 1182 462 367 
1163 889 469 415 1183 
1164 460 459 1233 543 
1165 703 719 1363 587 
1166 1236 152 1371 1257 
1167 579 670 1324 581 
1168 1277 1100 1324 670 
1169 1013 1308 1202 176 
1170 289 1253 1187 291 
1171 452 1156 1233 459 
1172 251 250 1307 252 
1173 953 954 1247 952 
1174 543 717 1388 544 
1175 603 608 1264 604 
1176 627 628 1216 634 
1177 282 1161 1285 280 
1178 588 1236 1257 706 
1179 674 1282 1112 1414 
1180 560 559 1408 646 
1181 438 444 1332 490 
1182 351 1241 339 305 
1183 1011 542 1125 1261 
1184 157 1310 1421 1197 
1185 334 1221 1143 332 
1186 254 1195 1171 255 
1187 151 1262 78 79 
1188 681 1160 487 1207 
1189 1169 466 523 1243 
1190 1023 703 585 1311 
1191 300 1226 1227 302 
1192 324 326 1193 474 
1193 1033 618 619 1214 
1194 278 280 1285 277 
1195 374 1300 1248 589 
1196 256 261 1195 254 
1197 820 1238 1157 819 
1198 825 823 1392 827 
1199 759 758 1317 761 
1200 957 958 1309 959 
1201 734 733 1313 756 
1202 745 1360 991 1284 
1203 1305 723 721 1293 
1204 989 1239 1284 991 
1205 1156 1089 1298 1233 
1206 198 1179 1386 197 
1207 645 642 1245 693 
1208 1076 495 1157 1238 
1209 103 1165 1399 1208 
1210 1035 502 1417 1217 
1211 1422 133 1154 1251 
1212 696 544 1388 697 
1213 744 711 1269 746 
1214 318 319 1246 317 
1215 761 812 1256 759 
1216 743 1121 684 1295 
1217 813 812 1412 814 
1218 1317 758 723 1305 
1219 161 1289 732 908 
1220 1168 698 586 587 
1221 1062 693 1245 1184 
1222 930 1031 1408 741 
1223 720 1126 788 1225 
1224 613 1033 1304 807 
1225 20 21 1410 154 
1226 1058 1340 834 746 
1227 700 425 1385 848 
1228 713 1192 644 1272 
1229 250 973 1398 1307 
1230 415 469 1395 446 
1231 1023 1254 719 703 
1232 861 1217 1417 860 
1233 309 1302 805 1354 
1234 1176 882 754 1378 
1235 752 1341 158 1199 
1236 852 896 855 1244 
1237 771 1310 157 1119 
1238 1390 1118 1346 1003 
1239 671 887 1405 888 
1240 1296 547 1335 1000 
1241 492 689 1261 1125 
1242 792 1234 1369 793 
1243 621 1215 1214 619 
1244 713 1272 836 712 
1245 1013 1014 1329 1280 
1246 204 205 1271 203 
1247 997 42 43 1294 
1248 325 870 1266 327 
1249 726 808 1370 717 
1250 475 1178 1313 733 
1251 499 497 531 1230 
1252 893 1179 681 1322 
1253 957 956 1357 958 
1254 643 606 604 1264 
1255 180 58 59 1301 
1256 551 735 1292 737 
1257 411 409 1400 1265 
1258 904 1219 1254 169 
1259 1184 1245 1396 837 
1260 621 623 1190 1215 
1261 174 919 1274 1314 
1262 767 1296 1000 1223 
1263 874 1314 1274 815 
1264 174 1314 1347 924 
1265 951 949 1362 952 
1266 1420 1148 1344 598 
1267 566 715 1426 714 
1268 1396 643 1365 910 
1269 214 1139 1313 1178 
1270 654 943 1287 528 
1271 779 1367 901 1258 
1272 363 1024 209 208 
1273 753 866 1339 1384 
1274 590 871 1415 591 
1275 959 960 1290 957 
1276 800 1249 668 1099 
1277 523 1112 1282 1243 
1278 511 1379 950 995 
1279 428 429 1300 374 
1280 609 868 1323 869 
1281 441 1150 1329 1142 
1282 1275 531 1395 1158 
1283 202 203 1271 222 
1284 329 338 1374 331 
1285 570 499 1230 659 
1286 377 837 1396 910 
1287 1161 1144 1413 1285 
1288 1264 1109 1365 643 
1289 813 1279 1256 812 
1290 87 1138 1333 86 
1291 289 288 1231 1253 
1292 1190 811 1348 1215 
1293 667 750 1349 1298 
1294 831 1158 1395 469 
1295 815 1274 1279 813 
1296 1364 1008 1404 655 
1297 55 56 1337 1151 
1298 145 787 1425 190 
1299 729 1164 151 1299 
1300 185 854 1244 855 
1301 632 635 1297 633 
1302 767 1223 1361 849 
1303 912 1304 1033 1214 
1304 788 1126 1425 787 
1305 457 890 1404 1008 
1306 961 1277 670 1170 
1307 984 1358 1409 985 
1308 209 1024 1417 502 
1309 1342 534 1409 1358 
1310 491 1141 1355 1084 
1311 407 405 1391 517 
1312 674 1159 710 1282 
1313 516 667 1298 1089 
1314 84 85 1333 178 
1315 1104 1373 1259 429 
1316 10 179 1343 9 
1317 291 1187 1302 293 
1318 151 1164 785 1262 
1319 36 37 1345 177 
1320 1344 793 1369 1152 
1321 35 162 1339 34 
1322 401 442 1355 1141 
1323 58 180 1337 57 
1324 592 876 1406 877 
1325 883 177 1345 1237 
1326 380 1146 1325 444 
1327 497 446 1395 531 
1328 820 819 1202 1308 
1329 309 295 293 1302 
1330 871 1373 716 1415 
1331 234 1092 1403 235 
1332 731 1291 353 1213 
1333 636 748 1310 771 
1334 254 252 1307 256 
1335 778 777 780 1260 
1336 653 734 1318 1263 
1337 690 1315 571 570 
1338 389 388 1359 395 
1339 672 708 1328 564 
1340 35 1059 1381 162 
1341 1088 1284 1239 536 
1342 740 1216 685 1312 
1343 1168 587 1363 795 
1344 990 991 1360 1001 
1345 939 938 1401 940 
1346 1092 1067 673 1331 
1347 883 1383 1059 177 
1348 1334 1303 839 187 
1349 686 981 1312 685 
1350 1068 1366 1331 673 
1351 866 1371 32 33 
1352 776 996 1367 779 
1353 1323 868 1231 1316 
1354 1110 1111 1414 1112 
1355 582 581 1324 583 
1356 1231 868 1402 1253 
1357 761 1350 1412 812 
1358 144 782 1367 996 
1359 1191 1288 857 896 
1360 756 757 1318 734 
1361 694 1062 1320 766 
1362 713 743 1295 755 
1363 874 915 1347 1314 
1364 777 779 1258 780 
1365 629 1201 1260 880 
1366 630 1276 901 900 
1367 1205 805 1302 1187 
1368 517 1400 409 407 
1369 709 655 1404 747 
1370 306 339 1330 993 
1371 762 763 1383 883 
1372 916 917 1347 915 
1373 297 298 1389 296 
1374 817 178 1333 1138 
1375 568 569 1364 567 
1376 1059 1383 763 1381 
1377 900 901 1367 782 
1378 900 782 1372 1203 
1379 556 1316 1171 1195 
1380 585 583 1324 1311 
1381 728 647 1353 751 
1382 845 844 1365 1109 
1383 663 678 1346 1118 
1384 1169 1243 1282 710 
1385 465 481 1309 1149 
1386 218 445 1313 1139 
1387 555 716 1373 1104 
1388 135 1228 769 1390 
1389 663 1118 1390 769 
1390 1177 1115 1355 442 
1391 726 1349 1220 808 
1392 682 881 1415 716 
1393 196 197 1386 195 
1394 552 610 1334 187 
1395 530 795 1363 1098 
1396 1222 1421 1310 748 
1397 480 534 1342 481 
1398 1021 1248 1300 1020 
1399 207 1204 1356 575 
1400 324 474 1286 1180 
1401 754 882 1418 640 
1402 1270 768 766 1320 
1403 695 921 1341 752 
1404 828 1219 1392 822 
1405 788 787 1380 789 
1406 811 1190 1423 810 
1407 1074 753 1384 1107 
1408 1280 1329 1150 1076 
1409 1337 180 1340 1151 
1410 785 1336 78 1262 
1411 371 1163 1317 421 
1412 788 1148 1420 1225 
1413 1399 1165 1343 179 
1414 404 971 1398 973 
1415 931 1321 1083 932 
1416 763 1107 1384 1381 
1417 103 104 1343 1165 
1418 904 154 1392 1219 
1419 481 1342 959 1309 
1420 221 674 1414 1124 
1421 1316 556 1174 1323 
1422 796 849 1361 159 
1423 288 1171 1316 1231 
1424 1146 1149 1309 1325 
1425 233 1124 1414 1111 
1426 740 1235 1319 739 
1427 558 741 1408 559 
1428 697 1197 1421 696 
1429 937 1267 1401 938 
1430 1412 1350 1163 478 
1431 639 822 1392 823 
1432 490 1416 510 438 
1433 132 133 1422 5 
1434 720 1225 1420 841 
1435 568 1185 1407 705 
1436 610 875 1303 1334 
1437 706 1257 1371 866 
1438 1325 1357 1332 444 
1439 872 1259 1373 871 
1440 627 725 1423 1189 
1441 948 1208 1399 1122 
1442 824 826 1355 1115 
1443 632 1203 1372 683 
1444 744 1278 1360 745 
1445 859 1375 857 1288 
1446 606 643 1396 641 
1447 827 1392 154 1410 
1448 1199 1407 1185 680 
1449 595 677 1394 1200 
1450 858 860 1417 1024 
1451 856 857 1375 865 
1452 317 1246 1368 341 
1453 1357 1325 1309 958 
1454 385 1137 1412 478 
1455 144 781 1372 782 
1456 646 1408 1031 1252 
1457 1173 279 1413 1211 
1458 189 190 1425 191 
1459 725 1240 810 1423 
1460 1266 803 804 1419 
1461 39 1237 1345 38 
1462 1187 1253 1402 1205 
1463 562 1222 1426 840 
1464 1136 1220 1349 750 
1465 985 1147 771 1397 
1466 1344 1152 1406 876 
1467 532 1210 1409 534 
1468 960 959 1342 1358 
1469 142 1281 749 1327 
1470 1369 397 1406 1152 
1471 899 1411 1103 691 
1472 623 1189 1423 1190 
1473 713 755 1376 1192 
1474 1419 1338 1374 338 
1475 748 714 1426 1222 
1476 1147 985 1409 1210 
1477 764 1283 143 1351 
1478 836 1272 644 1326 
1479 1163 1350 761 1317 
1480 686 1411 1382 981 
1481 1233 1298 1349 726 
1482 601 1200 1394 731 
1483 805 747 1306 1354 
1484 397 1369 1234 982 
1485 832 833 1374 1338 
1486 920 1291 731 1394 
1487 1381 1384 1339 162 
1488 1180 1352 1424 335 
1489 1180 1286 774 1352 
1490 277 1285 1413 279 
1491 848 1385 751 1353 
1492 931 363 1073 1321 
$EndElements
